<svg width="14" height="116" viewBox="0 0 14 116" fill="none" xmlns="http://www.w3.org/2000/svg">
<path opacity="0.1" d="M7 116C10.866 116 14 112.866 14 109C14 105.134 10.866 102 7 102C3.13401 102 0 105.134 0 109C0 112.866 3.13401 116 7 116Z" fill="white"/>
<path opacity="0.1" d="M7 82C10.866 82 14 78.866 14 75C14 71.134 10.866 68 7 68C3.13401 68 0 71.134 0 75C0 78.866 3.13401 82 7 82Z" fill="white"/>
<path opacity="0.1" d="M7 48C10.866 48 14 44.866 14 41C14 37.134 10.866 34 7 34C3.13401 34 0 37.134 0 41C0 44.866 3.13401 48 7 48Z" fill="white"/>
<path opacity="0.1" d="M7 14C10.866 14 14 10.866 14 7C14 3.13401 10.866 0 7 0C3.13401 0 0 3.13401 0 7C0 10.866 3.13401 14 7 14Z" fill="white"/>
<path d="M7 82C10.866 82 14 78.866 14 75C14 71.134 10.866 68 7 68C3.13401 68 0 71.134 0 75C0 78.866 3.13401 82 7 82Z" fill="#F7CC9B"/>
</svg>
