<svg width="14" height="114" viewBox="0 0 14 114" fill="none" xmlns="http://www.w3.org/2000/svg">
<path opacity="0.1" d="M7 114C10.866 114 14 110.866 14 107C14 103.134 10.866 100 7 100C3.13401 100 0 103.134 0 107C0 110.866 3.13401 114 7 114Z" fill="white"/>
<path opacity="0.1" d="M7 80C10.866 80 14 76.866 14 73C14 69.134 10.866 66 7 66C3.13401 66 0 69.134 0 73C0 76.866 3.13401 80 7 80Z" fill="white"/>
<path opacity="0.1" d="M7 46C10.866 46 14 42.866 14 39C14 35.134 10.866 32 7 32C3.13401 32 0 35.134 0 39C0 42.866 3.13401 46 7 46Z" fill="#F7CC9B"/>
<path d="M7 46C10.866 46 14 42.866 14 39C14 35.134 10.866 32 7 32C3.13401 32 0 35.134 0 39C0 42.866 3.13401 46 7 46Z" fill="#F7CC9B"/>
<path opacity="0.1" d="M7 14C10.866 14 14 10.866 14 7C14 3.13401 10.866 0 7 0C3.13401 0 0 3.13401 0 7C0 10.866 3.13401 14 7 14Z" fill="white"/>
</svg>
