<svg id="Layer_1" data-name="Layer 1" xmlns="http://www.w3.org/2000/svg" xmlns:xlink="http://www.w3.org/1999/xlink" viewBox="0 0 1810.62 1563.55"><defs><style>.cls-1{fill:#fff;}.cls-2{clip-path:url(#clip-path);}.cls-3{clip-path:url(#clip-path-2);}.cls-4{clip-path:url(#clip-path-3);}.cls-5{clip-path:url(#clip-path-4);}.cls-6{clip-path:url(#clip-path-5);}.cls-7{clip-path:url(#clip-path-6);}.cls-8{clip-path:url(#clip-path-7);}.cls-9{clip-path:url(#clip-path-8);}.cls-10{clip-path:url(#clip-path-9);}.cls-11{clip-path:url(#clip-path-11);}.cls-12{clip-path:url(#clip-path-12);}.cls-13{clip-path:url(#clip-path-13);}.cls-14{clip-path:url(#clip-path-14);}.cls-15{clip-path:url(#clip-path-15);}.cls-16{clip-path:url(#clip-path-16);}.cls-17{clip-path:url(#clip-path-17);}.cls-18{clip-path:url(#clip-path-18);}.cls-19{clip-path:url(#clip-path-19);}.cls-20{clip-path:url(#clip-path-20);}.cls-21{clip-path:url(#clip-path-21);}.cls-22{clip-path:url(#clip-path-22);}.cls-23{clip-path:url(#clip-path-23);}.cls-24{clip-path:url(#clip-path-24);}.cls-25{clip-path:url(#clip-path-25);}.cls-26{clip-path:url(#clip-path-26);}.cls-27{clip-path:url(#clip-path-27);}</style><clipPath id="clip-path"><rect class="cls-1" y="1477.17" width="1810.62" height="86.38"/></clipPath><clipPath id="clip-path-2"><path class="cls-1" d="M1497.6,1426.87l.86,3.08H1539c-5.44-19.29-18.8-35.52-18.8-35.52s-23-1.71-41.82-3.46c4.2,5.24,14.23,19.69,19.25,35.9m-210.13-355.8s12.92,50.39-17.24,71.59c2.25.3,23.69,114.56,35.63,179.32l16.36,108h169.59c-5.65-19.4-20-36-20-36s-50.57-3.46-65.8-5.56-30.69-30.28-30.69-30.28l4-197.86s7.42-20.5,15.58-55.6c35.4-152,65.21-275.45-86.23-394.27,3.79,7.3-207,151.55-21.26,360.74M490.14,408.7A64.18,64.18,0,0,0,462.08,417a70.09,70.09,0,0,0-22.15,20.32A77.17,77.17,0,0,0,426.42,478l-.06,1.74v3.55c.06.71.09,1.45.12,2.19l.2,2.22c.09.71.24,1.42.33,2.16l.44,2.13c.15.71.36,1.39.56,2.1a46.44,46.44,0,0,0,7.43,14.87,54.35,54.35,0,0,0,11,10.91,57.73,57.73,0,0,0,27.59,11,49.76,49.76,0,0,0,15.37-.53,44.33,44.33,0,0,0,26.53-16.06,57.11,57.11,0,0,0,7.42-12.74,11.5,11.5,0,0,0-20.91-9.58l-.14.29c-5.3,10.68-14.14,14.73-24.61,12.78a31.31,31.31,0,0,1-14.22-6.92,25.92,25.92,0,0,1-4.82-5.62,16.43,16.43,0,0,1-2.37-5.77c0-.23-.11-.44-.14-.68a6,6,0,0,0,0-.71,4.62,4.62,0,0,1-.09-.65,4.86,4.86,0,0,0,0-.68v-.68l.09-1.09.08-1.13.09-1.09a49,49,0,0,1,1.78-8.55,43.4,43.4,0,0,1,7.8-14.84,36.28,36.28,0,0,1,12.22-9.73,29.9,29.9,0,0,1,12-2.84,13.75,13.75,0,0,0,1.93,0h.35l.59,0h.39a21.83,21.83,0,0,0,3.13-.44,65.88,65.88,0,0,1,17.06.21,72.14,72.14,0,0,1,19.08,5.64,79.38,79.38,0,0,1,17.24,10.65,81.29,81.29,0,0,1,13.93,14.73l1.41,2.07c.48.71.92,1.39,1.37,2.1.85,1.41,1.74,2.92,2.36,4.16l.3.51.14.23,0,.09,0,.09.42.89c.29.71.59,1.42.88,2.19a42.89,42.89,0,0,1,1.39,4.34,43.52,43.52,0,0,1,1.54,9,45,45,0,0,1-.15,9.2,54.64,54.64,0,0,1-5.41,18.07,60.92,60.92,0,0,1-5.05,8.4,52.74,52.74,0,0,1-6,7.15,32.59,32.59,0,0,1-14,8.19c-5.44,1.54-12.07,2-19.14,1.54a173.8,173.8,0,0,1-22.41-3c-3.87-.72-7.75-1.54-11.65-2.4l-6.12-1.33c-2.1-.45-4.26-.92-6.42-1.3a231.75,231.75,0,0,0-26.35-3.7,172.87,172.87,0,0,0-27.41-.09,132,132,0,0,0-27.77,5.21,118,118,0,0,0-26.29,11.5,128.29,128.29,0,0,0-22.71,17,166.91,166.91,0,0,0-18.42,20.53,203.48,203.48,0,0,0-14.9,22.44,182.49,182.49,0,0,0-11.86,24.49,169.37,169.37,0,0,0-11.77,53.73,152.23,152.23,0,0,0,7.6,55.12A164.06,164.06,0,0,0,323.45,800a197.63,197.63,0,0,0,18.22,20.4,210,210,0,0,0,43.23,32.42q11.84,6.65,24.45,12.24c1.22.56,2.49,1.09,3.76,1.62A147,147,0,0,0,409,901.27a151.07,151.07,0,0,0,.8,15.53A6.89,6.89,0,0,0,409,920c1.36,128.87-159.39,223.12-159.39,223.12S199,1365.51,199.72,1365.54L185.86,1430H381.79c-5.67-19.4-20-36-20-36s-50.59-3.46-65.79-5.56-14.7-21.94-14.7-21.94c6.18-87.24,35-161,75.14-199.76,7.36-8.54,16.47-16.26,27.41-20.78,9-3.73,31.11-8.37,32.27-8.64,100.21-21.64,154-51.19,182.42-74.46,13.43-11,21.26-20.61,25.67-27.35,1.65-3.37,3.4-6.72,5.26-10v0a159.22,159.22,0,0,1,16.3-23.71c29.63-35.49,76.85-56.13,136.91-38.48,52.67,15.5,107.34,40.13,148.92,62.22,7.48,4.67,15.32,9.14,23.45,13.34,51.75,26.79,115.89,43.85,185.86,47,7.71.32,15.46.53,23.27.53q23,0,45.18-2a490.94,490.94,0,0,0,66.42-10.38c-35.78-41.34-59.2-83.36-69.46-125a204,204,0,0,1,2.45-108.2c18.69-62.69,63.43-107.37,82.59-126.48.83-.82,1.75-1.74,2.61-2.63a133.88,133.88,0,0,0-85.52,2.75,144.18,144.18,0,0,0-22.68,10.77c-.06,0-.12.06-.18.09-1.3.79-2.6,1.59-3.91,2.36,0,0-.08,0-.11,0a251.18,251.18,0,0,1-26.74,13.66c-34.27,15-74.19,23.51-116.74,23.51-41.46,0-80.38-8.1-114-22.36Q913,735.69,900.8,729.76c-3.76-1.86-7.57-3.64-11.5-5.41C840.47,702.58,782.1,690,719.41,690,610,690,513.86,728.43,458.56,786.6v0a194.25,194.25,0,0,0-31.88,44.12c-1.18-.32-2.33-.7-3.52-1.06a117.88,117.88,0,0,1-20.22-9,180.93,180.93,0,0,1-18.84-12.09,192,192,0,0,1-17.24-14.41,151.49,151.49,0,0,1-14.93-16.35,126.57,126.57,0,0,1-21-37.82,116.63,116.63,0,0,1-6.39-42.4,130.9,130.9,0,0,1,9-42.65A153.16,153.16,0,0,1,343,634.8a167.84,167.84,0,0,1,12.33-18.86c8.9-11.92,19.25-22.12,31.2-29.19s25.31-11.09,39.71-12.3a137.72,137.72,0,0,1,22.06,0A201.19,201.19,0,0,1,471,577.62c1.89.32,3.82.73,5.71,1.15l6,1.27c4.17.92,8.34,1.8,12.63,2.57A206.35,206.35,0,0,0,522,586.16a117,117,0,0,0,14.49-.06,78.11,78.11,0,0,0,15.44-2.63,63.81,63.81,0,0,0,15.29-6.39,68.08,68.08,0,0,0,13.07-9.93,87.29,87.29,0,0,0,10-11.71A100.84,100.84,0,0,0,598,542.66a89.56,89.56,0,0,0,8.93-29.1,82.57,82.57,0,0,0-2.19-31c-.65-2.51-1.48-5-2.33-7.42-.48-1.18-1-2.37-1.42-3.55l-.39-.86-.47-1.06-.12-.33-.15-.2-.2-.45-.48-.88c-1.24-2.43-2.42-4.47-3.69-6.6l-2-3.13-2.07-3a113.38,113.38,0,0,0-44.32-37.05A108.49,108.49,0,0,0,519,409.24a101.58,101.58,0,0,0-16.18-1.31,106.64,106.64,0,0,0-12.63.77m704.48,45c-2-4.94,7.51-13.54,21.26-19.19s26.64-6.21,28.68-1.24-7.51,13.54-21.29,19.16c-7.51,3.07-14.72,4.64-20.08,4.64-4.49,0-7.66-1.09-8.57-3.37M1456.89,17.18c22.17.5,43.85,18.9,51.8,46,7.87,26.82-.11,53.65-18,66.27,0,0-.08.09-.08.15s-.12.12-.18,0a39.71,39.71,0,0,1-11.65,5.59,40.5,40.5,0,0,1-17.92,1.09c-6,12.75-14.73,29.81-21.38,35.28-11.06,9.14-28,14.79-34.81,23.81s-1.68-14,5.09-24.16c2.42-3.67,5.68-7.93,8.84-11.83a49,49,0,0,0,6.18-6.21,47.08,47.08,0,0,0,4.64-6.65h0c4.08-7,3.76-11.06,2-20.44-1.65-6-.79-4.08-4.52-11.18a2.83,2.83,0,0,1-.09.27c-3.9,9.58-10.67,16.71-19.63,19.34a26.79,26.79,0,0,1-7.49,1.06,29.32,29.32,0,0,1-21.23-6.62c-4.7-3.73-13.63-14.7-18.27-27.18-.65-1.71-1.25-3.52-1.81-5.35a60.6,60.6,0,0,1-1.12-31.26c.18-.91.44-1.77.71-2.69a40.49,40.49,0,0,1,1.48-4.31,42.47,42.47,0,0,1,2.13-4.59c.41-.71.85-1.42,1.27-2.1,8.49-13.72,24.48-23.12,43.08-23.12,5.47,0,17.92,2.78,19.22,2.93a49.3,49.3,0,0,0-8.75-10.09,47.49,47.49,0,0,0-63.55.77s-1.33,1.27-1.48,1.39h0c-1.12,1.18-69.16,63.4,5.27,154.81,4.55,7,2.72,15.2-2.93,13.24s-21.26-26.29-31.11-29.75c-6.65-2.33,1.89,26,13,52.64,6.92,19.58,12,44.3,13.87,71.36,2.16,30.48.8,50.27-4.52,71.77-16.89-33.63-46.34-80.82-64.82-100.43-30.7-32.58-22.83,0-22.83,0s9,74.29,10.23,107.41l-68.4-108.35s-9.16-11.45-8.13,9.34c.47,9.7,2,38.06,3.52,65.44a292.66,292.66,0,0,1-17.45-47c-7.18-26.17-10.61-51.18-10.61-71.94,1.59-28.8.23-58.32-5.24-53.91-8.13,6.5-14.75,34.6-19.46,38.35s-9.16-3.4-7.15-11.53c33.68-107.37-39.86-143.95-39.86-143.95a.38.38,0,0,0-.21-.12,64.82,64.82,0,0,0-6.45-3.67l-.44-.2a.32.32,0,0,0-.21-.09l-.23-.12-.21-.12-.74-.3a47.49,47.49,0,0,0-60.18,20.38,48.05,48.05,0,0,0-4.91,12.42c.06.06.09.12.15.15-4.94,16.65-.56,36.37,11,49.56-.09-.8-.09-1.66-.18-2.49a27.77,27.77,0,0,1-.26-3v-.06c-.06-1.24-.3-2.46-.3-3.73,0-17.36,7-32.59,17.72-41.52a33.12,33.12,0,0,1,6.29-4.28c.09,0,.12-.09.24-.12a24.51,24.51,0,0,1,5.59-2.19,28.84,28.84,0,0,1,4.41-1,9.82,9.82,0,0,1,1.27-.29,4.48,4.48,0,0,1,.62.06,26.62,26.62,0,0,1,3.46-.45c21.85,0,39.56,22.33,39.56,49.83a59.09,59.09,0,0,1-6,26.23c-.38.89-.86,1.69-1.3,2.54-7.16,12.72-18.92,21.09-32.23,21.09-9,0-17.18-3.9-23.81-10.29h-.08a8,8,0,0,1,0,1.09,25.28,25.28,0,0,1,.57,4.53c0,14-12.25,25.69-28.9,29.39a7,7,0,0,0-.85.21,50.68,50.68,0,0,1-10,1.09c-.35,0-.65-.06-1-.09-.68,0-1.39-.09-2.07-.15a49.34,49.34,0,0,1-7.72-1c-1.8-.3-3.4-.27-5.32-.74-21.06-6-37.53-28.63-39-56.48-1.51-28.27,12.81-52.85,33.59-60.65C971.27,56.9,950.24,55.71,932,78.78c-44.66,56.39,30.51,113.32,30.51,113.32-16.14,2.8-29.72-3.7-35-6.19s-6.71-1.77-6.71-1.77c23.77,32.26,50.21,38.56,72.48,44.3s88.5,14.58,98.68,42.31-11,16.89-12.75,13.43,8-20.7-3.7-10.47-9.87,43.06,22.27,43.62,47.64,9.14,57.9,19.75c8.84,9.17,32.68,58.94,39.07,72.48-23.57,12.66-47.64,30.37-70.77,55.86l-79,70.68s2.78,24.92,41.54,16.61,94.37-29.09,104.75-17.38c.14.2.32.41.47.62l0,0c7.21,12.89-70.59,62.48-70.59,62.48s5,26.32,73.46,0c33.71-13,59.73-21.47,77.44-26.79s27.12-7.39,27.65-7.51l.06,0c4.32,2,8,4.82,12,7.33.09,17.1,1.8,59.59,1.83,59.56,12.51-7.87,21.12-20.85,25-35.1.35.53.5,1.12.86,1.66a102.44,102.44,0,0,0,8.69,66.32,80,80,0,0,1-7.07,15.77,88.82,88.82,0,0,1-23,24.54c69.64,55.45,106,115.41,114.29,188.52a337.12,337.12,0,0,1,.62,63.84c-1.18,15.52-3.25,31.32-5.88,47.31,27.32-22.23,48.17-48,60.62-76.08.38-.86.71-1.75,1.09-2.58a411.72,411.72,0,0,1-1.09,44.48c11.5-24.19,18.12-50,23-76.24a371.65,371.65,0,0,0,38.7-77.35c8.76,18.15,14.61,33.91,13.28,54,10.77-52.66,16.53-101.75,19.46-155.45,1.45-26.88,1.54-55.48-12.18-78.66,16.44,3.69,29.39,15.85,43.17,25.58s31.7,17.36,47.17,10.7c-26.23-4.85-44.66-28.92-55.21-53.4s-16-51.31-30-74c-11.47-18.72-28.68-33.56-48.53-42.94-.65-1.18-1.24-2.39-1.95-3.58,31.64-.41,66.63,2,86.2,26.35-5.44-34.27-31.76-62.33-62.33-78.84s-65.21-23.15-99.27-29.68A91.37,91.37,0,0,1,1472,380.34c-.42.06-.8.33-1.22.36.54-.8,1.57-1.24,2-2.13-1.21,2.66-43.26-1.36-48.17-1.51-11-.29-34.18-5.41-44.06.09-1.36.77-1.83,1.86-2.63,2.81,2.57-20.58,6.06-44,9.32-51.16,6.15-13.39,17.92-26.61,48.08-37.85s19.81-41.93,6.47-48.53c-13.89-6.92-1.83,7.69,0,11.09,4.77,8.67-16.82,21.18-16.47-8.42s59.91-60,79-72.72,41.93-27.53,53.64-65.85c0,0-1.57-.12-5.71,3.93s-14.75,14.73-30.93,17.42c0,0,52-78.63-8.84-117-9.58-6.06-18.36-8.54-26.2-8.54-12.45,0-22.48,6.35-29.39,14.9"/></clipPath><clipPath id="clip-path-3"><path class="cls-1" d="M715.86,974.79c-1.39.44-2.9.82-4.26,1.33-2.75.91-5.32,2-7.92,3.1a112,112,0,0,0-30.23,20.47c-24.48,23.15-36.52,53-55.62,71.38-39.33,38-71.47,44.3-71.47,44.3l67.09,182.3L660.15,1430H823.68c-5.71-19.4-27.39-37.41-27.39-37.41s-66.27-3.67-81.58-5.44c-13.16-1.54-16.89-21.77-16.89-21.77-46.45-203.12-47.46-207.38-46.19-226.69,1.66-25.19,25.73-41.46,43.32-51.16,1.1-.62,2.22-1.27,3.26-1.83,57.63-25.43,111.75-59.32,134.93-75.17,8.69-5.94,13.19-9.4,11.65-8.87a409.41,409.41,0,0,0-44.53-20.26c-.77-.29-1.72-.74-2.46-1-.94-.44-2-.76-3-1.15-6.63-2.39-12.69-4.32-18.1-5.76-.53-.12-1-.24-1.54-.33-2.84-.77-5.29-1.21-7.78-1.72a125.93,125.93,0,0,0-18.09-1.33,120.78,120.78,0,0,0-33.45,4.74m718,37.34-9.52,7.75c-5.12,27.56-11.65,55.74-18.4,84.58l-.59,2.57c-7,30-13.39,49.41-15.34,55.06L1386,1355.34c6.27,10.53,16.09,21.79,21.44,22.5,8,1.09,26.38,2.6,41.61,3.79A68.78,68.78,0,0,1,1439,1370.8c.18-11.41,1.69-57,12.84-226,2-22.47,20.88-130.56,30.52-185.26-12.48,18.83-28.69,36.43-48.53,52.57"/></clipPath><clipPath id="clip-path-4"><path class="cls-1" d="M1497.6,1426.87l.86,3.08H1539c-5.44-19.29-18.8-35.52-18.8-35.52s-23-1.71-41.82-3.46c4.2,5.24,14.23,19.69,19.25,35.9m-210.13-355.8s12.92,50.39-17.24,71.59c2.25.3,23.69,114.56,35.63,179.32l16.36,108h169.59c-5.65-19.4-20-36-20-36s-50.57-3.46-65.8-5.56-30.69-30.28-30.69-30.28l4-197.86s7.42-20.5,15.58-55.6c35.4-152,65.21-275.45-86.23-394.27,3.79,7.3-207,151.55-21.26,360.74M490.14,408.7A64.18,64.18,0,0,0,462.08,417a70.09,70.09,0,0,0-22.15,20.32A77.17,77.17,0,0,0,426.42,478l-.06,1.74v3.55c.06.71.09,1.45.12,2.19l.2,2.22c.09.71.24,1.42.33,2.16l.44,2.13c.15.71.36,1.39.56,2.1a46.44,46.44,0,0,0,7.43,14.87,54.35,54.35,0,0,0,11,10.91,57.73,57.73,0,0,0,27.59,11,49.76,49.76,0,0,0,15.37-.53,44.33,44.33,0,0,0,26.53-16.06,57.11,57.11,0,0,0,7.42-12.74,11.5,11.5,0,0,0-20.91-9.58l-.14.29c-5.3,10.68-14.14,14.73-24.61,12.78a31.31,31.31,0,0,1-14.22-6.92,25.92,25.92,0,0,1-4.82-5.62,16.43,16.43,0,0,1-2.37-5.77c0-.23-.11-.44-.14-.68a6,6,0,0,0,0-.71,4.62,4.62,0,0,1-.09-.65,4.86,4.86,0,0,0,0-.68v-.68l.09-1.09.08-1.13.09-1.09a49,49,0,0,1,1.78-8.55,43.4,43.4,0,0,1,7.8-14.84,36.28,36.28,0,0,1,12.22-9.73,29.9,29.9,0,0,1,12-2.84,13.75,13.75,0,0,0,1.93,0h.35l.59,0h.39a21.83,21.83,0,0,0,3.13-.44,65.88,65.88,0,0,1,17.06.21,72.14,72.14,0,0,1,19.08,5.64,79.38,79.38,0,0,1,17.24,10.65,81.29,81.29,0,0,1,13.93,14.73l1.41,2.07c.48.71.92,1.39,1.37,2.1.85,1.41,1.74,2.92,2.36,4.16l.3.51.14.23,0,.09,0,.09.42.89c.29.71.59,1.42.88,2.19a42.89,42.89,0,0,1,1.39,4.34,43.52,43.52,0,0,1,1.54,9,45,45,0,0,1-.15,9.2,54.64,54.64,0,0,1-5.41,18.07,60.92,60.92,0,0,1-5.05,8.4,52.74,52.74,0,0,1-6,7.15,32.59,32.59,0,0,1-14,8.19c-5.44,1.54-12.07,2-19.14,1.54a173.8,173.8,0,0,1-22.41-3c-3.87-.72-7.75-1.54-11.65-2.4l-6.12-1.33c-2.1-.45-4.26-.92-6.42-1.3a231.75,231.75,0,0,0-26.35-3.7,172.87,172.87,0,0,0-27.41-.09,132,132,0,0,0-27.77,5.21,118,118,0,0,0-26.29,11.5,128.29,128.29,0,0,0-22.71,17,166.91,166.91,0,0,0-18.42,20.53,203.48,203.48,0,0,0-14.9,22.44,182.49,182.49,0,0,0-11.86,24.49,169.37,169.37,0,0,0-11.77,53.73,152.23,152.23,0,0,0,7.6,55.12A164.06,164.06,0,0,0,323.45,800a197.63,197.63,0,0,0,18.22,20.4,210,210,0,0,0,43.23,32.42q11.84,6.65,24.45,12.24c1.22.56,2.49,1.09,3.76,1.62A147,147,0,0,0,409,901.27a151.07,151.07,0,0,0,.8,15.53A6.89,6.89,0,0,0,409,920c1.36,128.87-159.39,223.12-159.39,223.12S199,1365.51,199.72,1365.54L185.86,1430H381.79c-5.67-19.4-20-36-20-36s-50.59-3.46-65.79-5.56-14.7-21.94-14.7-21.94c6.18-87.24,35-161,75.14-199.76,7.36-8.54,16.47-16.26,27.41-20.78,9-3.73,31.11-8.37,32.27-8.64,100.21-21.64,154-51.19,182.42-74.46,13.43-11,21.26-20.61,25.67-27.35,1.65-3.37,3.4-6.72,5.26-10v0a159.22,159.22,0,0,1,16.3-23.71c29.63-35.49,76.85-56.13,136.91-38.48,52.67,15.5,107.34,40.13,148.92,62.22,7.48,4.67,15.32,9.14,23.45,13.34,51.75,26.79,115.89,43.85,185.86,47,7.71.32,15.46.53,23.27.53q23,0,45.18-2a490.94,490.94,0,0,0,66.42-10.38c-35.78-41.34-59.2-83.36-69.46-125a204,204,0,0,1,2.45-108.2c18.69-62.69,63.43-107.37,82.59-126.48.83-.82,1.75-1.74,2.61-2.63a133.88,133.88,0,0,0-85.52,2.75,144.18,144.18,0,0,0-22.68,10.77c-.06,0-.12.06-.18.09-1.3.79-2.6,1.59-3.91,2.36,0,0-.08,0-.11,0a251.18,251.18,0,0,1-26.74,13.66c-34.27,15-74.19,23.51-116.74,23.51-41.46,0-80.38-8.1-114-22.36Q913,735.69,900.8,729.76c-3.76-1.86-7.57-3.64-11.5-5.41C840.47,702.58,782.1,690,719.41,690,610,690,513.86,728.43,458.56,786.6v0a194.25,194.25,0,0,0-31.88,44.12c-1.18-.32-2.33-.7-3.52-1.06a117.88,117.88,0,0,1-20.22-9,180.93,180.93,0,0,1-18.84-12.09,192,192,0,0,1-17.24-14.41,151.49,151.49,0,0,1-14.93-16.35,126.57,126.57,0,0,1-21-37.82,116.63,116.63,0,0,1-6.39-42.4,130.9,130.9,0,0,1,9-42.65A153.16,153.16,0,0,1,343,634.8a167.84,167.84,0,0,1,12.33-18.86c8.9-11.92,19.25-22.12,31.2-29.19s25.31-11.09,39.71-12.3a137.72,137.72,0,0,1,22.06,0A201.19,201.19,0,0,1,471,577.62c1.89.32,3.82.73,5.71,1.15l6,1.27c4.17.92,8.34,1.8,12.63,2.57A206.35,206.35,0,0,0,522,586.16a117,117,0,0,0,14.49-.06,78.11,78.11,0,0,0,15.44-2.63,63.81,63.81,0,0,0,15.29-6.39,68.08,68.08,0,0,0,13.07-9.93,87.29,87.29,0,0,0,10-11.71A100.84,100.84,0,0,0,598,542.66a89.56,89.56,0,0,0,8.93-29.1,82.57,82.57,0,0,0-2.19-31c-.65-2.51-1.48-5-2.33-7.42-.48-1.18-1-2.37-1.42-3.55l-.39-.86-.47-1.06-.12-.33-.15-.2-.2-.45-.48-.88c-1.24-2.43-2.42-4.47-3.69-6.6l-2-3.13-2.07-3a113.38,113.38,0,0,0-44.32-37.05A108.49,108.49,0,0,0,519,409.24a101.58,101.58,0,0,0-16.18-1.31,106.64,106.64,0,0,0-12.63.77m853.69-43.58c.57-2.31,1.1-4.71,1.6-7.13l-22.65-34.16c8,14.61,15.35,29.19,21,41.29m-21-41.29c-14.76-27-31.67-54.23-44.12-66.47ZM1194.62,453.71c-2-4.94,7.51-13.54,21.26-19.19s26.64-6.21,28.68-1.24-7.51,13.54-21.29,19.16c-7.51,3.07-14.72,4.64-20.08,4.64-4.49,0-7.66-1.09-8.57-3.37m-168.56-397a48.05,48.05,0,0,0-4.91,12.42c.06.06.09.12.15.15-4.94,16.65-.56,36.37,11,49.56-.09-.8-.09-1.66-.18-2.49a27.77,27.77,0,0,1-.26-3v-.06c-.06-1.24-.3-2.46-.3-3.73,0-17.36,7-32.59,17.72-41.52a33.12,33.12,0,0,1,6.29-4.28c.09,0,.12-.09.24-.12a24.51,24.51,0,0,1,5.59-2.19,28.84,28.84,0,0,1,4.41-1,9.82,9.82,0,0,1,1.27-.29,4.48,4.48,0,0,1,.62.06,26.62,26.62,0,0,1,3.46-.45c21.85,0,39.56,22.33,39.56,49.83a59.09,59.09,0,0,1-6,26.23c-.38.89-.86,1.69-1.3,2.54-7.16,12.72-18.92,21.09-32.23,21.09-9,0-17.18-3.9-23.81-10.29h-.08a8,8,0,0,1,0,1.09,25.28,25.28,0,0,1,.57,4.53c0,14-12.25,25.69-28.9,29.39a7,7,0,0,0-.85.21,50.68,50.68,0,0,1-10,1.09c-.35,0-.65-.06-1-.09-.68,0-1.39-.09-2.07-.15a49.34,49.34,0,0,1-7.72-1c-1.8-.3-3.4-.27-5.32-.74-21.06-6-37.53-28.63-39-56.48-1.51-28.27,12.81-52.85,33.59-60.65C971.27,56.9,950.24,55.71,932,78.78c-44.66,56.39,30.51,113.32,30.51,113.32-16.14,2.8-29.72-3.7-35-6.19s-6.71-1.77-6.71-1.77c23.77,32.26,50.21,38.56,72.48,44.3s88.5,14.58,98.68,42.31-11,16.89-12.75,13.43,8-20.7-3.7-10.47-9.87,43.06,22.27,43.62,47.64,9.14,57.9,19.75c8.84,9.17,32.68,58.94,39.07,72.48-23.57,12.66-47.64,30.37-70.77,55.86l-79,70.68s2.78,24.92,41.54,16.61,92-31.52,102.41-19.81c.15.24,2.81,3.05,2.81,3.05l0,0c7.21,12.89-70.59,62.48-70.59,62.48s5,26.32,73.46,0c33.71-13,59.73-21.47,77.44-26.79s27.12-7.39,27.65-7.51l.06,0c4.32,2,8,4.82,12,7.33.09,17.1,1.8,59.59,1.83,59.56,12.51-7.87,21.12-20.85,25-35.1.35.53.5,1.12.86,1.66a102.44,102.44,0,0,0,8.69,66.32,80,80,0,0,1-7.07,15.77,88.82,88.82,0,0,1-23,24.54c69.64,55.45,106,115.41,114.29,188.52a337.12,337.12,0,0,1,.62,63.84c-1.18,15.52-3.25,31.32-5.88,47.31,27.32-22.23,48.17-48,60.62-76.08.38-.86.71-1.75,1.09-2.58a411.72,411.72,0,0,1-1.09,44.48c11.5-24.19,23-76.24,23-76.24s28.29-48.73,38.7-77.35l-292.1-559s9,74.29,10.23,107.41l-68.4-108.35s-9.16-11.45-8.13,9.34c.47,9.7,2,38.06,3.52,65.44a292.66,292.66,0,0,1-17.45-47c-7.18-26.17-10.61-51.18-10.61-71.94,1.59-28.8.23-58.32-5.24-53.91-8.13,6.5-14.75,34.6-19.46,38.35s-9.16-3.4-7.15-11.53c33.68-107.37-39.86-143.95-39.86-143.95a.38.38,0,0,0-.21-.12,64.82,64.82,0,0,0-6.45-3.67l-.44-.2a.32.32,0,0,0-.21-.09l-.23-.12-.21-.12-.74-.3a47.92,47.92,0,0,0-18.81-3.84,47.28,47.28,0,0,0-41.37,24.22m430.83-39.51c22.17.5,43.85,18.9,51.8,46,7.87,26.82-.11,53.65-18,66.27,0,0-.08.09-.08.15s-.12.12-.18,0a39.71,39.71,0,0,1-11.65,5.59,40.5,40.5,0,0,1-17.92,1.09c-6,12.75-14.73,29.81-21.38,35.28-11.06,9.14-28,14.79-34.81,23.81s-1.68-14,5.09-24.16c2.42-3.67,5.68-7.93,8.84-11.83a49,49,0,0,0,6.18-6.21,47.08,47.08,0,0,0,4.64-6.65h0c4.08-7,3.76-11.06,2-20.44-1.65-6-.79-4.08-4.52-11.18a2.83,2.83,0,0,1-.09.27c-3.9,9.58-10.67,16.71-19.63,19.34a26.79,26.79,0,0,1-7.49,1.06,29.32,29.32,0,0,1-21.23-6.62c-4.7-3.73-13.63-14.7-18.27-27.18-.65-1.71-1.25-3.52-1.81-5.35a60.6,60.6,0,0,1-1.12-31.26c.18-.91.44-1.77.71-2.69a40.49,40.49,0,0,1,1.48-4.31,42.47,42.47,0,0,1,2.13-4.59c.41-.71.85-1.42,1.27-2.1,8.49-13.72,24.48-23.12,43.08-23.12,5.47,0,17.92,2.78,19.22,2.93a49.3,49.3,0,0,0-8.75-10.09,47.49,47.49,0,0,0-63.55.77s-1.33,1.27-1.48,1.39h0c-1.12,1.18-69.16,63.4,5.27,154.81,4.55,7,2.72,15.2-2.93,13.24s-21.26-26.29-31.11-29.75c-6.65-2.33,1.89,26,13,52.64,6.92,19.58,12,44.3,13.87,71.36s.18,51.95-4,72.27l236.69,356.69c1.45-26.88,1.54-55.48-12.18-78.66,16.44,3.69,29.39,15.85,43.17,25.58s31.7,17.36,47.17,10.7c-26.23-4.85-44.66-28.92-55.21-53.4s-16-51.31-30-74c-11.47-18.72-28.68-33.56-48.53-42.94-.65-1.18-1.24-2.39-1.95-3.58,31.64-.41,66.63,2,86.2,26.35-5.44-34.27-31.76-62.33-62.33-78.84s-65.21-23.15-99.27-29.68A91.37,91.37,0,0,1,1472,380.34c-.42.06-.8.33-1.22.36.54-.8,1.57-1.24,2-2.13-1.21,2.66-43.26-1.36-48.17-1.51-11-.29-34.18-5.41-44.06.09-1.36.77-1.83,1.86-2.63,2.81,2.57-20.58,6.06-44,9.32-51.16,6.15-13.39,17.92-26.61,48.08-37.85s19.81-41.93,6.47-48.53c-13.89-6.92-1.83,7.69,0,11.09,4.77,8.67-16.82,21.18-16.47-8.42s59.91-60,79-72.72,41.93-27.53,53.64-65.85c0,0-1.57-.12-5.71,3.93s-14.75,14.73-30.93,17.42c0,0,52-78.63-8.84-117-9.58-6.06-18.36-8.54-26.2-8.54-12.45,0-22.48,6.35-29.39,14.9"/></clipPath><clipPath id="clip-path-5"><path class="cls-1" d="M715.51,957.28c-27.83,5.91-52.4,22.65-69.67,44.42,18.33-20.94,43.32-36.05,70.49-40.49,27.21-5.2,54.74.39,80.67,9.79,52.43,18.13,103.35,40.69,151.38,68.78,49.74,26.65,105.15,41.37,160.87,46.84a485,485,0,0,0,83.92.54c14-.21,27.77-3.05,41.55-5.62l41.16-7.48.3-.06-.21-.24-5.06-5.62,4.56,5.62c-55,8.31-110.45,13.6-165.54,6.33-54.86-6.51-109.18-21.2-157.62-47.7-48.5-27.5-100-50.54-153.33-67.45-18.27-6.09-37.94-10.47-57.57-10.47a116.29,116.29,0,0,0-25.9,2.81"/></clipPath><clipPath id="clip-path-6"><path class="cls-1" d="M454.13,541.92c-2.19-.12-4.35-.2-6.54-.23,2.19.08,4.35.17,6.54.23m-29.49-.74c-9.61,1.78-19.75,2.28-29.21,5.12-9,4.11-18.84,6.89-27.24,12.27-7.78,6.09-16.85,11-23.71,18.25a184.48,184.48,0,0,0-35.17,48,167.41,167.41,0,0,0-19.1,56.63c-5.68,39.89,5.06,81.64,28.69,113.88,24,32.08,57,56.12,93.65,70.23-35.4-16.92-66.21-42.44-88.36-73.9-21.59-31.76-31.67-71.18-25.7-109,5.06-37.94,24.66-73.34,50.51-101.31,24.87-26.67,61.6-40.13,98.59-39.68-6-.27-12-.63-18-.63-1.63,0-3.28,0-4.94.12"/></clipPath><clipPath id="clip-path-7"><path class="cls-1" d="M1206.51,716.16h0M680.76,689.39C639,693.06,597.66,702.55,559,718.73s-74.51,39.54-102.81,70.2c29.39-29.72,66.12-50.83,104.47-66.09,38.44-15.5,79.37-24.34,120.59-27.38,82.39-6,167,10.11,238.67,51l.27.14.2.09c41.73,17.24,87.33,23.9,132.07,21.32,44.65-2.84,89.42-14.55,127.63-38.2l-.24.09h0l.33-.15,3.9-2.46-.18.09a143.32,143.32,0,0,1,22.57-11.23l.09,0c15.49-6,32-9.88,48.82-10.3-16.71-.2-33.36,3-49.24,8.49H1206l-.14.09a143.08,143.08,0,0,0-23.1,10.35l-.21.15-4,2.25,0,0C1101.2,770.3,1004.06,774.06,923.3,740c-60.8-36.7-131.86-52.34-202.18-52.34-13.51,0-27,.59-40.36,1.71"/></clipPath><clipPath id="clip-path-8"><path class="cls-1" d="M1385.56,801.47c20.34,35.66,30.34,76.47,31.49,117.31,1.51,41-5,81.79-12.8,122-8.87,40-15.73,80.76-29.72,119.41,14.4-38.53,21.67-79.19,30.93-119.18,8.25-40.15,15.26-81,14-122.33-1.57-41.11-12.07-82.21-32.89-117.84-21-35.52-50.47-65.18-82.71-90.52,32,25.67,61,55.57,81.68,91.14"/></clipPath><clipPath id="clip-path-9"><path class="cls-1" d="M1288.74,1110.25c-2.24,12.42-7.72,24.25-17.56,31.52l-1.33,1,.26,1.6c3.85,24.39,8.79,47.75,13.34,71.59l14.28,71.15c5.21,23.65,9.2,47.22,12.57,71.26s7.78,47.73,11.92,71.6c-2-24.14-3.82-48.29-6.48-72.39l-3.84-36.14-6.57-35.84c-8.54-47-19-94.21-29.21-140.49,9.81-9,15.08-21.8,16.05-34.36a106.33,106.33,0,0,0-4.34-38.69,104.59,104.59,0,0,1,.91,38.21"/></clipPath><clipPath id="clip-path-11"><path class="cls-1" d="M631.64,1021.18l0,0c0-.06,0-.09.06-.11a.42.42,0,0,0-.09.14m1.6.39h0m-1.51-.53a.12.12,0,0,1,.09-.06l-.15.17,0,.06-.09.36a.91.91,0,0,1,.09-.39l-5.59,9.88.09-.12c-14.87,20.26-36.16,34.81-57.93,47-22.06,12.09-45.54,21.41-69.34,29.69a713.94,713.94,0,0,1-73,19.9c-12.33,2.72-24.86,5.29-37.31,9.43-12.9,4.47-23.54,13.22-32,23.13C329.84,1187,312.69,1221,300.86,1256c-12,35.1-17.77,72-19.52,108.7a443.63,443.63,0,0,1,24.6-106.9c13-34,30.52-66.92,56.07-92.23l.15-.15.12-.15c8-9.16,17.71-16.88,28.89-20.61,11.68-3.78,24.13-6,36.52-9.05a712.35,712.35,0,0,0,73.6-20.93c24.1-8.43,47.7-18.66,69.73-31.79,21.79-13.1,43.17-28.77,57.07-50.69l.06-.06,0-.09,4.85-9.9a1.3,1.3,0,0,0,.12-.21,154.34,154.34,0,0,1,15.67-23.65A156.23,156.23,0,0,0,631.73,1021"/></clipPath><clipPath id="clip-path-12"><path class="cls-1" d="M253.28,1144.11h0M403.44,950.63c-5.44,27.38-17.74,53.08-33.65,76-32,45.84-75.59,83.34-122.57,113.11l-1.54,1-.39,1.66C224.62,1238,202.62,1333.42,185.86,1430c22.68-94.66,45.74-189.23,67-284.15,24-14.76,45.9-32,66.48-50.9,20.85-19.4,40.25-40.63,56-64.55s27.53-50.66,32.29-78.95c5.17-28.39-1.51-56.87,5.14-84.64-8,27.42-3,56.75-9.37,83.87"/></clipPath><clipPath id="clip-path-13"><path class="cls-1" d="M1020.44,70.11l-.14.68.14.12a55.09,55.09,0,0,0,11.77,49.62l1.3,1.48-.23-2c-.62-6.21-1.1-12.63.09-18.78a55.79,55.79,0,0,1,5.94-17.77c5.65-11.18,16.41-20,28.8-21.2l0,0c14.08-2.1,27.53,7.27,34.28,19.28,7.12,12,9.22,26.88,6.56,40.57s-10.23,27-22.56,33.53c-12.3,6.83-28,3.43-37.47-6.53l-.12-.15-.15-.06-2.86-1.57,0,3.11v1.3l0,.12c3.91,18.36-16,32.11-33.35,33.21-4.47.65-9-.33-13.52-.86a31.62,31.62,0,0,1-13-3.37A51.36,51.36,0,0,1,965.83,163c-10.27-15.14-13.87-34.63-10.27-52.64,3.43-17.8,14.64-35.1,31.82-41.64l2.22-.82-2-1.33c-13.87-9.35-33.77-8.43-46.34,2.78-12.51,10.58-21.56,25.46-23.74,41.81-2,16.5,3.57,32.88,12.06,46.6a145.58,145.58,0,0,0,30.81,34.93,50.74,50.74,0,0,1-18.63-1.16,70.52,70.52,0,0,1-10.11-3.37c-3.37-1.21-6.27-3.52-10.59-3.25l-.79,0,.56.8c11.29,15.58,26.94,28.18,45,35s37,10.29,55.65,14.67c18.48,4.58,37.35,9.43,53.79,19.22,8.19,4.79,15.23,11.89,17.68,21.17,1.1,4.29,2.87,9.85-.09,13.1-3.58,2.34-9-.35-12.18-3.1-1.74-3.49.77-8.93.44-13.72.57-1.48-2.13-3.2-3.19-1.72a13,13,0,0,0-2.81,2.48,24.16,24.16,0,0,0-4.26,6c-4.23,8.81-3.9,19.87,1.69,28.06,5.65,8.43,16.2,11.62,25.7,11.65a121.3,121.3,0,0,1,28.29,3.67,63.35,63.35,0,0,1,25.14,12.86c7.39,6,11.47,15,16.23,23.21,9.11,16.86,17.36,34.19,25.55,51.55l1.28-.62c-8.22-17.36-16.48-34.69-25.58-51.58-4.76-8.19-9-17.33-16.59-23.56A64.46,64.46,0,0,0,1126.93,321a123.4,123.4,0,0,0-28.63-3.69c-9.37,0-19.31-3.13-24.69-11.06-5.26-7.72-5.62-18.42-1.54-26.79a21.52,21.52,0,0,1,4-5.71c1.48-1.42,4-4.2,3.84-1.51.5,4.62-2.54,9.23-.09,14.46,3.67,3,8.87,6.12,13.87,3.2,3.76-4.5,1.42-9.94.5-14.41-2.57-9.55-10-17-18.27-21.82-16.68-9.93-35.6-14.78-54.18-19.34-18.65-4.4-37.64-7.77-55.5-14.58a98.21,98.21,0,0,1-43.88-33.8c2.78.33,5.85,2.19,8.72,3.46a67.43,67.43,0,0,0,10.26,3.67,52,52,0,0,0,21.76,1.36l2.4-.38-2-1.54-.36-.27a144.14,144.14,0,0,1-31.73-35.63c-8.31-13.48-13.63-29.37-11.68-45.16s10.94-30.16,23-40.27c11.41-10,28.54-11.3,41.58-3.79-16.89,7.66-27.45,25-30.67,42.62-3.4,18.48-.29,38.41,10.2,54.32a54.49,54.49,0,0,0,21,18.89c4,2.31,9.4,3.43,13.72,3.76,4.7.59,9.43,1.66,14.25,1,9.47-.94,19-4.14,26.47-10.43,6.48-5.39,11.24-13.93,10.73-22.72,10.62,8.08,26,9.91,37.56,2.87,13-7.27,20.73-21.11,23.45-35.22s.44-29.45-7-42c-7-12.36-21.23-22.18-36-19.93h.06c-13.27,1.42-24.25,10.74-30,22.18a57.65,57.65,0,0,0-6,18.22c-1.06,5.73-.73,11.38-.2,17.09-10.26-13.19-13.84-31.38-9.11-47.26l.18-.65-.15-.15c5.12-20.25,25.14-35,45.39-33.82,20.11,1.33,38.71,14.49,52.55,29.66,14.1,15.58,21.76,36.43,23.18,57.48s-3.13,42.35-9.78,62.51l0,.06c-.89,4.59-1.33,12.1,5.58,13.75,6.57-1.89,6.54-8.31,8.91-12.44,3.78-9.11,6.56-19.2,12.77-26.53,1.63-2.37,2.43.18,3.16,2.54a44.84,44.84,0,0,1,1.28,7.22c.5,4.94.71,9.93.79,14.87.21,10-.29,19.87-.65,29.93a268.68,268.68,0,0,0,28.51,115.65l.09,0c-16-36.49-25.55-75.91-26.7-115.62.23-9.88.71-20,.41-29.93-.09-5-.32-10-.89-15a59.61,59.61,0,0,0-1.3-7.51,11.14,11.14,0,0,0-1.62-3.73c-1-1.74-3.85-.5-4.23.48-6.83,8-9.44,17.86-13.34,27-2,4.11-3.43,10.49-7.21,11.14-3.94-.5-4.91-7.15-3.76-11.29v0c6.42-20.38,11-41.67,9.76-63.2-1-21.38-7.9-43-21.88-59.88-13.67-16.17-32.18-32.14-55.54-32h-.41c-22.71,0-42.73,17.53-47.38,38.76"/></clipPath><clipPath id="clip-path-14"><path class="cls-1" d="M697.11,1090.2h0m-2.84-5.91-.12.06-.11.06c-15.53,8.1-31.41,18-41.55,33.89-10.76,16.44-7.78,36.84-4.82,53.55,6.33,34.6,14.52,68.46,22.35,102.52,8.4,34.16,14.82,67.63,25,102.23a28.75,28.75,0,0,0,8.61,11.68c4.29,3.4,10,3.46,14,3.7l26.26,1,52,.74c11.5,9.85,22.62,21.47,27.86,36.2-4.47-15.17-15.2-27.59-26.62-38.39l-.23-.23-.51,0-52.28-3-26-1.8c-9.32.38-14-4.32-17.3-12.31-8.13-32.7-15.38-67.86-23-101.57-7.42-34.1-15.4-68.2-22.2-102.2-3.17-16.8-5.62-34.39,3.34-48.26,8.6-13.93,23.42-23.48,38.23-31.94a813.38,813.38,0,0,0,138.25-81.44,1008.08,1008.08,0,0,1-141,75.5"/></clipPath><clipPath id="clip-path-15"><path class="cls-1" d="M1494.14,129.85l-.14.35c.06-.17.09-.32.14-.35m-4.87-1.84,0,0s0,.06-.06.06Zm.94-.79c.27-.15.27-.33.62-.45,2.13-.26,2.6.92,2.6.92ZM1456.29,15.64l-2.24,3.05,3.72.12c24.1.8,43.47,21.67,49.71,44.32,6.77,22.42,1.89,50.16-17.39,63.88l-.23.18c-4.47,1.8-8.58,4.55-13.25,5.7a39,39,0,0,1-14.37.36l-2.1-.33-.89,1.92c-4.55,9.7-9.4,19.4-15.23,28.13-5.2,8.69-15.52,13-24.75,18.66-4.67,2.75-9.55,5.56-13.69,9.84l-.24.33c.24-1.36.33-2.63.68-4,2.16-10.5,8.61-18.66,15.23-27.15a62.18,62.18,0,0,0,11.18-13.22l-1.48,1.1,1.48-1.1c4.61-6.38,3.93-15.55,2.39-22.06l0-.18a39.79,39.79,0,0,0-4.71-11.71l-1.3-2.18c-1.18,2.72-3.25,4.49-4.91,6.71-8.1,9.64-27.41,20.88-47.4,4a57.83,57.83,0,0,1-8.63-11.38c-7.43-12.33-11.18-27.24-9.11-41.7,1.65-14.52,11.12-27.71,24.22-34.48a52,52,0,0,1,21.14-5.88c7.36,0,14.7,1.77,22.06,2.6l.36.06-.24-.27c-4.82-5.23-8.93-11.12-15.11-14.87a47.32,47.32,0,0,0-19.93-7.46,50.47,50.47,0,0,0-40.49,12.84l1.63-.65-1.63.68c-21.32,20-33,50.06-31.08,79.63a124.54,124.54,0,0,0,12,42.14c6.27,13.1,14.64,24.87,23.54,36.2,3,3.49,2.31,10.56.71,9.22-2.78-1-7.31-6.65-10.74-10.46-3.69-4.26-7.45-8.58-11.62-12.6a36.09,36.09,0,0,0-7.21-5.5c-.53-.36-4.64-2.72-6.77,1.09-1,2.46-.54,3.76-.51,5.39,3.43,23.33,15.5,43,20.88,64.61,11.09,43.29,14.76,82.32,5,126.27,10.56-44.12,8.93-83.13-1.63-127.16-5.26-22.18-16.91-42.37-19.69-64.11a8.12,8.12,0,0,1,.09-2.16c.17.06.11.06.44.21a33,33,0,0,1,6.09,4.82c3.91,3.87,7.48,8.16,11.12,12.45,4.2,4.17,5.88,9,13.6,12.45,5.47,1.3,8.58-5.27,8-8.13a18.53,18.53,0,0,0-3-9.5l-.06-.06-.12-.2c-8.51-11.21-16.53-22.83-22.32-35.55a120,120,0,0,1-10.83-39.92C1324.14,73,1335,45.1,1354,24.69c9.11-9.87,23.12-15.79,37-14.49a45.63,45.63,0,0,1,19.87,6.27c6.33,3.19,10.35,9.17,14.91,14.37-7.25-1-14.43-2.84-21.8-3a52.8,52.8,0,0,0-21.59,5.61c-13.48,6.66-23.83,19.94-26.17,35.11-2.78,15,.6,30.81,7.93,44.15,4.79,9.22,10.82,18.18,23.15,23.06,31.53,3.31,40.34-14.81,40.34-14.81a1.74,1.74,0,0,1,0-.3,25.54,25.54,0,0,1,2.36,5.74c1.42,7,2.1,13.07-1.71,18.69a59.54,59.54,0,0,1-10.26,12.3l-.27.18-.09.11c-6.68,8.49-13.57,17.89-16.08,29a36.63,36.63,0,0,0-1.51,8.61c.26.89-.59,1.8,1.71,3.93,3.67.83,3.67-1,4.53-1.33l2.66-3.07c3.46-3.49,8.1-6.21,12.74-8.85,9-5.41,20.14-9.7,26.68-19.84,6.09-8.69,10.61-18,15-27.35a41.7,41.7,0,0,0,14.31-.47c5.35-1.36,10-4.5,15-6.72l-.2-.06a4.25,4.25,0,0,0,1-.71c.06-.06.09-.17.18-.23a.23.23,0,0,0,.06-.15l0,.15c20.76-16.21,25-45.42,17.65-68.67-6.77-22.32-25.43-42.93-49.85-46,9.78-10.68,25.28-15,38.91-9.49,14.49,5.47,27.44,16.35,34.54,30.16,13.28,29.25,1.48,63.49-14.52,89.93l-2.28,3.81,4.29-.74a53.69,53.69,0,0,0,20.58-8.37,70,70,0,0,0,8.73-6.89c.56-.59,1.27-1.21,2-1.83-5.38,14.28-13,27.68-24.13,38-13.4,11.62-28.83,20.79-44.06,30.46s-30.7,19.63-43.92,32.53c-12.92,11.35-25.55,33.38-10.79,50.27,5.12,3.25,11.71,0,13.63-5.12,2-6.54-3.66-9.88-5.08-13.48a7.9,7.9,0,0,1-1.39-3,17.72,17.72,0,0,1,4.49,2,21.68,21.68,0,0,1,8.19,9.2c3.91,7.51,4.56,17.06-.06,24.16-4.52,7.42-12.68,10.7-21.32,13.9-16.62,6.86-33.62,17.24-42,34.39-6.83,17.71-7.3,35.78-9.4,53.79l-.33,2.63,1.75-2,1.51-1.95-1-.77c3.07-16.89,4.73-34.69,10.7-50,7.75-16,23.78-25.93,40.1-32.7,8-3,17.89-6.83,23-15.38,5.38-8.37,4.52-19.28.24-27.62a26.66,26.66,0,0,0-9.64-10.68c-2.34-1.12-3.85-2.33-7.37-2.48-5.59,3.91-.53,6.57-.47,8.34,2.16,4.14,6.36,7.54,4.82,10.5-1.18,3.28-5.77,5.41-8.55,3.4-5.47-4.64-5.5-15.94-3.1-23.21,2.87-8,8.84-14.82,15.17-20.91,12.95-12.16,28.33-21.71,43.68-31,31.19-16.71,63.16-42.11,72.42-78.81l.85-3.58-2.78.8c-6.06,1.72-7,4.91-10,7.13a68.58,68.58,0,0,1-8.13,6.53c-4.41,3-9.47,4.56-14.52,6a149.27,149.27,0,0,0,16.23-40.31c3.31-15.94,3.2-33.39-4.05-48.61-7.69-14.91-21.23-26.2-36.73-32.12A36,36,0,0,0,1488.05,0a40.07,40.07,0,0,0-31.76,15.64"/></clipPath><clipPath id="clip-path-16"><path class="cls-1" d="M1154.05,436.83c-12.78,10.29-24,22.29-36.41,33l-73,65.73-.26.24,0,.3c1.33,12,13.89,17.65,24.19,18.09,10.76.89,21.41-1,31.78-3.34,20.56-5.59,40.75-12.06,61.63-15.61a133.12,133.12,0,0,1,15.61-1.95c4.56-.3,12.13-.15,13,2.36-3.14,9-11.68,16.89-19,24-15.55,14.29-33,26.47-50.71,38l-.65.45.23.53c3.61,8.63,13.22,10.17,20.76,10.76,8.05.48,15.91-.85,23.69-2.15,15.55-3.11,30.55-8.23,45.21-13.93s29.66-10.59,44.57-15.68c15-4.76,29.84-10.38,45.21-13.21l11.8,7.15,1.84,58.47L1312,571.46v-.12l-.09-.08L1300,564l-.06-.06h-.09c-15.64,2.78-30.43,8.31-45.48,13-15,5-30,9.66-44.68,15.37s-29.72,10.53-45.13,13.55c-7.71,1.21-15.49,2.48-23.27,2-7.15-.42-15.91-2.6-18.83-8.9,17.65-11.36,35-23.33,50.68-37.44,7.57-7.51,16.06-14.25,20-25.46-.77-4.91-5.12-4.29-7.42-4.94a47,47,0,0,0-8.13-.06,138.65,138.65,0,0,0-15.94,2.07c-21,3.76-41.31,10.41-61.63,16.12-10.26,2.42-20.79,4.32-31.23,3.49-10-.33-21.46-5.74-22.91-16.21l72.33-66c12.33-10.82,23.45-22.89,36.16-33.27s25.7-20.46,40.52-27.53c-14.88,7-28.13,16.92-40.75,27.27"/></clipPath><clipPath id="clip-path-17"><path class="cls-1" d="M1550.86,817.26h0M1379.73,377.83l.83.42c5.74-4.2,14.64-3.29,22-3.11a230.91,230.91,0,0,1,23,2.93c14.31,2.22,28.71,4.37,43.47,2.78-9.17,10.73-17.89,22.21-21.94,36.19l-.42,1.36,1.51.15c34.33,3.76,68.7,12.45,99.33,28.57,15.29,8.07,29.48,18.45,40.69,31.58a94.39,94.39,0,0,1,20.55,41.43c-4.4-4.67-9.9-7.81-15.52-10.53a102,102,0,0,0-22.27-7.27c-15.26-3.4-30.87-4.08-46.37-3.94l-4.7,0,4.14,2.28c16.53,9,32.09,20.49,44.42,34.75,13.28,13.95,16.94,33.17,23.63,51s13.15,35.87,22.71,52.63c5,8.55,12.45,14.64,19.25,21.53,6.44,5.44,14.16,8.81,21.91,11.47-5.56.86-12-.23-17.74-1.47a132.64,132.64,0,0,1-21.21-7.16c-15-10-28.15-24-46.75-28.65l-2.33-.6.88,2.22c7.48,18.22,14.11,36.7,13.25,56.45,0,19.55-2.19,39.1-4.29,58.61-4.08,35.64-8.93,71.21-14.07,106.73-1.75-14.64-5.06-29.22-12.93-42.11l-1.24-2-.94,2.27c-5.3,13.31-11,26.44-17.27,39.3s-12.84,25.64-21.47,36.85l-.12.18.65,1.92c-1.77,3.84-2.54,12.27-4.26,18.15l-5,19.34c-3.69,12.78-7.63,25.55-13.33,37.59,6.09-11.86,10.44-24.54,14.52-37.26l5.62-19.22,2.48-9.73c.18-3.61,2.45-5.18.89-10.38l.35,1.09.15-.14c8.87-11.54,15.44-24.43,21.76-37.32,5.92-12.22,11.36-24.58,16.45-37.17,8.28,14.63,10.94,32.17,12.24,49l.89,10.94,1.59-10.83c5.65-38.88,11-77.83,15.5-116.86,2.13-19.52,4.26-39.09,4.29-58.88.91-19.16-5.42-37.76-12.42-55.06,16.5,4.88,29.27,18.1,43.7,27.77l.15.09.09,0a135.54,135.54,0,0,0,21.67,7.27c7.49,1.51,15.14,3.22,23.22.36l3.16-1.16-3.4-1.09c-9-2.87-17.92-6.3-25-12.33-6.5-6.6-14.13-12.95-18.74-20.94-9.32-16.38-16-34.39-22.51-52.19-6.56-17.51-10.44-37.38-24.07-51.81-11.59-13.43-25.76-24.25-41.07-33,13.84.06,27.76.89,41.22,3.87a99.86,99.86,0,0,1,21.73,7.13c6.75,3.22,13.58,7.51,17.54,13.45l3.19,4.74-.85-5.51a96.66,96.66,0,0,0-22-47.37c-11.44-13.39-25.87-24-41.37-32.17-30.63-16.09-64.55-24.78-98.79-28.69,4.26-13.57,13.66-25.4,23.06-36.16l2.58-3-3.79.92c-14.84,2.42-30.72.5-45.86-1.66-7.69-1.15-15.44-2.19-23.22-2.57-1.45,0-2.93,0-4.4,0l-3.32,0c-5.29,0-10.61.5-15.17,4.05"/></clipPath><clipPath id="clip-path-18"><path class="cls-1" d="M1258.94,245.5c13.36,25,26.34,50.09,38.2,75.79,5.68,12.84,11.8,25.85,14.76,39.39,2.22,6.71-3.55,12.75-10.47,13.34-6.8,1-13.93.11-20.82-1.13l-.09.21c6.72,2.28,13.93,3.58,21.18,2.69,7.15,0,15.55-7.42,12.53-15.52-3.37-14.14-9.73-26.82-15.64-39.69-12.27-25.52-25.7-50.45-39.51-75.14Z"/></clipPath><clipPath id="clip-path-19"><path class="cls-1" d="M1194.5,257.86c12.33,24.6,24.25,49.47,35,74.82,5.12,12.65,10.83,25.52,13.1,38.77,1.19,6.56-4.49,11.85-11.29,12.38-6.66.86-13.58,0-20.32-1.15a47.29,47.29,0,0,0,20.55,2.84c6.92,0,15.17-6.18,13.43-14.37-2.69-13.93-8.58-26.41-14-39.12-11.18-25.23-23.57-49.83-36.34-74.26Z"/></clipPath><clipPath id="clip-path-20"><path class="cls-1" d="M1256.63,241l-.83.2.09.95,10,117.34-66.71-103.86-.26.15,67.54,108.91,2.57,4.08-.39-4.79-10.35-120.59c9.79,2.9,18.4,13.63,25.88,22a359,359,0,0,1,21.91,29.34c13.81,20.19,26.47,41.16,38.77,62.3l.06,0c-12-21.35-24.28-42.52-37.79-63-6.72-10.24-13.9-20.2-21.62-29.78a151.1,151.1,0,0,0-12.39-13.69c-4.76-3.91-8.63-9.05-16.35-9.64Z"/></clipPath><clipPath id="clip-path-21"><path class="cls-1" d="M447.12,424.35C433.34,435.53,424,452.5,422.9,470.51c-1.1,17.8,5.71,36.58,19.81,48,14,11.62,33,14.46,50.09,11.74-17.24.92-35.22-2.93-48.23-14S426,487.45,427.13,470.74c.56-16.85,8.87-33.12,21.79-44.23s29.87-17.45,47.26-18.31c-1.1-.06-2.16-.06-3.26-.06-16.38,0-33,5.47-45.8,16.21"/></clipPath><clipPath id="clip-path-22"><path class="cls-1" d="M490.91,408.2a195.3,195.3,0,0,1,42.11,7c13.6,4,26.64,10,37.79,18.45a79.52,79.52,0,0,1,26.5,32c6.39,12.68,8.13,27,9.88,41.19h.11c0-14.22-.85-29.13-7.27-42.41-5.68-13.3-14.67-25.69-26.67-34.21-22-15.11-48.59-22.3-74.76-22.3-2.57,0-5.12.06-7.69.21"/></clipPath><clipPath id="clip-path-23"><path class="cls-1" d="M1455.61,1145.06h0m-7.57-.83,0,.18,0,.2c-3.78,75.35-7.8,150.7-9,226.19,7.37-75,11.92-150.22,16.62-225.39,9.79-61.8,19.82-123.58,27-185.85l-.59-.06c-13.13,61.27-23.45,123-34,184.73"/></clipPath><clipPath id="clip-path-24"><path class="cls-1" d="M1384.85,584.89c12,14.28,17.3,33.06,21.94,51,4.32,18.22,6.8,37,3.58,55.51a367.66,367.66,0,0,1-12.15,51.72q-7.15-17.79-15.85-34.87c-6.45-12.15-13.22-24.36-22.8-34.54-11.8-8-16.5-21.56-18.63-35a177.88,177.88,0,0,1-1.48-41.07,180.1,180.1,0,0,0,.38,41.25c1.69,13.42,6.92,28,18.6,36,9.26,10,16,22.14,22.27,34.3,6.15,12.24,11.71,24.81,16.62,37.61l1.09,2.87.95-2.93c5.71-17.95,10.7-36.19,13.31-54.94,3.16-18.81.44-38.06-4.08-56.27-4.91-18.07-10.3-36.79-22.77-51.46-13.81-12.8-22.83-29.75-31.2-46.48,8,16.88,16.35,34.33,30.22,47.4"/></clipPath><clipPath id="clip-path-25"><path class="cls-1" d="M1470.19,567.44c5.92,8.31,13.55,14.94,21.38,21s15.73,12.27,24.25,17.33c17,10.2,34,20.52,52.08,28.59l.41-.74c-16.38-11.09-33.39-21.11-49.41-32.5-16.33-10.94-32.8-21.85-46.76-35.3Z"/></clipPath><clipPath id="clip-path-26"><path class="cls-1" d="M1502,501.38c8,1.48,16.32,2.78,24.57.56-15.73-5-30.69-8.46-47.31-9.76,7,4.68,14.85,7.16,22.74,9.2"/></clipPath><clipPath id="clip-path-27"><path class="cls-1" d="M1210.65,878.35a176,176,0,0,0,12.53,90.37c4.53,14.79,13.58,27.45,20.82,40.87,8.37,12.81,18.81,24.16,28.07,36.2-18.25-24.34-36.17-49.36-46.17-78.1-11.68-28.06-14.63-59.06-11.35-88.92s13.57-59.11,28.65-85.4c15.32-26.14,34.07-50.57,56.4-71.33-45.9,39.63-81.27,94.86-88.95,156.31"/></clipPath></defs><title>small white</title><rect class="cls-1" y="1477.17" width="1810.62" height="86.38"/><g class="cls-2"><rect class="cls-1" y="1477.17" width="1810.62" height="86.38"/></g><path class="cls-1" d="M1497.6,1426.87l.86,3.08H1539c-5.44-19.29-18.8-35.52-18.8-35.52s-23-1.71-41.82-3.46c4.2,5.24,14.23,19.69,19.25,35.9m-210.13-355.8s12.92,50.39-17.24,71.59c2.25.3,23.69,114.56,35.63,179.32l16.36,108h169.59c-5.65-19.4-20-36-20-36s-50.57-3.46-65.8-5.56-30.69-30.28-30.69-30.28l4-197.86s7.42-20.5,15.58-55.6c35.4-152,65.21-275.45-86.23-394.27,3.79,7.3-207,151.55-21.26,360.74M490.14,408.7A64.18,64.18,0,0,0,462.08,417a70.09,70.09,0,0,0-22.15,20.32A77.17,77.17,0,0,0,426.42,478l-.06,1.74v3.55c.06.71.09,1.45.12,2.19l.2,2.22c.09.71.24,1.42.33,2.16l.44,2.13c.15.71.36,1.39.56,2.1a46.44,46.44,0,0,0,7.43,14.87,54.35,54.35,0,0,0,11,10.91,57.73,57.73,0,0,0,27.59,11,49.76,49.76,0,0,0,15.37-.53,44.33,44.33,0,0,0,26.53-16.06,57.11,57.11,0,0,0,7.42-12.74,11.5,11.5,0,0,0-20.91-9.58l-.14.29c-5.3,10.68-14.14,14.73-24.61,12.78a31.31,31.31,0,0,1-14.22-6.92,25.92,25.92,0,0,1-4.82-5.62,16.43,16.43,0,0,1-2.37-5.77c0-.23-.11-.44-.14-.68a6,6,0,0,0,0-.71,4.62,4.62,0,0,1-.09-.65,4.86,4.86,0,0,0,0-.68v-.68l.09-1.09.08-1.13.09-1.09a49,49,0,0,1,1.78-8.55,43.4,43.4,0,0,1,7.8-14.84,36.28,36.28,0,0,1,12.22-9.73,29.9,29.9,0,0,1,12-2.84,13.75,13.75,0,0,0,1.93,0h.35l.59,0h.39a21.83,21.83,0,0,0,3.13-.44,65.88,65.88,0,0,1,17.06.21,72.14,72.14,0,0,1,19.08,5.64,79.38,79.38,0,0,1,17.24,10.65,81.29,81.29,0,0,1,13.93,14.73l1.41,2.07c.48.71.92,1.39,1.37,2.1.85,1.41,1.74,2.92,2.36,4.16l.3.51.14.23,0,.09,0,.09.42.89c.29.71.59,1.42.88,2.19a42.89,42.89,0,0,1,1.39,4.34,43.52,43.52,0,0,1,1.54,9,45,45,0,0,1-.15,9.2,54.64,54.64,0,0,1-5.41,18.07,60.92,60.92,0,0,1-5.05,8.4,52.74,52.74,0,0,1-6,7.15,32.59,32.59,0,0,1-14,8.19c-5.44,1.54-12.07,2-19.14,1.54a173.8,173.8,0,0,1-22.41-3c-3.87-.72-7.75-1.54-11.65-2.4l-6.12-1.33c-2.1-.45-4.26-.92-6.42-1.3a231.75,231.75,0,0,0-26.35-3.7,172.87,172.87,0,0,0-27.41-.09,132,132,0,0,0-27.77,5.21,118,118,0,0,0-26.29,11.5,128.29,128.29,0,0,0-22.71,17,166.91,166.91,0,0,0-18.42,20.53,203.48,203.48,0,0,0-14.9,22.44,182.49,182.49,0,0,0-11.86,24.49,169.37,169.37,0,0,0-11.77,53.73,152.23,152.23,0,0,0,7.6,55.12A164.06,164.06,0,0,0,323.45,800a197.63,197.63,0,0,0,18.22,20.4,210,210,0,0,0,43.23,32.42q11.84,6.65,24.45,12.24c1.22.56,2.49,1.09,3.76,1.62A147,147,0,0,0,409,901.27a151.07,151.07,0,0,0,.8,15.53A6.89,6.89,0,0,0,409,920c1.36,128.87-159.39,223.12-159.39,223.12S199,1365.51,199.72,1365.54L185.86,1430H381.79c-5.67-19.4-20-36-20-36s-50.59-3.46-65.79-5.56-14.7-21.94-14.7-21.94c6.18-87.24,35-161,75.14-199.76,7.36-8.54,16.47-16.26,27.41-20.78,9-3.73,31.11-8.37,32.27-8.64,100.21-21.64,154-51.19,182.42-74.46,13.43-11,21.26-20.61,25.67-27.35,1.65-3.37,3.4-6.72,5.26-10v0a159.22,159.22,0,0,1,16.3-23.71c29.63-35.49,76.85-56.13,136.91-38.48,52.67,15.5,107.34,40.13,148.92,62.22,7.48,4.67,15.32,9.14,23.45,13.34,51.75,26.79,115.89,43.85,185.86,47,7.71.32,15.46.53,23.27.53q23,0,45.18-2a490.94,490.94,0,0,0,66.42-10.38c-35.78-41.34-59.2-83.36-69.46-125a204,204,0,0,1,2.45-108.2c18.69-62.69,63.43-107.37,82.59-126.48.83-.82,1.75-1.74,2.61-2.63a133.88,133.88,0,0,0-85.52,2.75,144.18,144.18,0,0,0-22.68,10.77c-.06,0-.12.06-.18.09-1.3.79-2.6,1.59-3.91,2.36,0,0-.08,0-.11,0a251.18,251.18,0,0,1-26.74,13.66c-34.27,15-74.19,23.51-116.74,23.51-41.46,0-80.38-8.1-114-22.36Q913,735.69,900.8,729.76c-3.76-1.86-7.57-3.64-11.5-5.41C840.47,702.58,782.1,690,719.41,690,610,690,513.86,728.43,458.56,786.6v0a194.25,194.25,0,0,0-31.88,44.12c-1.18-.32-2.33-.7-3.52-1.06a117.88,117.88,0,0,1-20.22-9,180.93,180.93,0,0,1-18.84-12.09,192,192,0,0,1-17.24-14.41,151.49,151.49,0,0,1-14.93-16.35,126.57,126.57,0,0,1-21-37.82,116.63,116.63,0,0,1-6.39-42.4,130.9,130.9,0,0,1,9-42.65A153.16,153.16,0,0,1,343,634.8a167.84,167.84,0,0,1,12.33-18.86c8.9-11.92,19.25-22.12,31.2-29.19s25.31-11.09,39.71-12.3a137.72,137.72,0,0,1,22.06,0A201.19,201.19,0,0,1,471,577.62c1.89.32,3.82.73,5.71,1.15l6,1.27c4.17.92,8.34,1.8,12.63,2.57A206.35,206.35,0,0,0,522,586.16a117,117,0,0,0,14.49-.06,78.11,78.11,0,0,0,15.44-2.63,63.81,63.81,0,0,0,15.29-6.39,68.08,68.08,0,0,0,13.07-9.93,87.29,87.29,0,0,0,10-11.71A100.84,100.84,0,0,0,598,542.66a89.56,89.56,0,0,0,8.93-29.1,82.57,82.57,0,0,0-2.19-31c-.65-2.51-1.48-5-2.33-7.42-.48-1.18-1-2.37-1.42-3.55l-.39-.86-.47-1.06-.12-.33-.15-.2-.2-.45-.48-.88c-1.24-2.43-2.42-4.47-3.69-6.6l-2-3.13-2.07-3a113.38,113.38,0,0,0-44.32-37.05A108.49,108.49,0,0,0,519,409.24a101.58,101.58,0,0,0-16.18-1.31,106.64,106.64,0,0,0-12.63.77m704.48,45c-2-4.94,7.51-13.54,21.26-19.19s26.64-6.21,28.68-1.24-7.51,13.54-21.29,19.16c-7.51,3.07-14.72,4.64-20.08,4.64-4.49,0-7.66-1.09-8.57-3.37M1456.89,17.18c22.17.5,43.85,18.9,51.8,46,7.87,26.82-.11,53.65-18,66.27,0,0-.08.09-.08.15s-.12.12-.18,0a39.71,39.71,0,0,1-11.65,5.59,40.5,40.5,0,0,1-17.92,1.09c-6,12.75-14.73,29.81-21.38,35.28-11.06,9.14-28,14.79-34.81,23.81s-1.68-14,5.09-24.16c2.42-3.67,5.68-7.93,8.84-11.83a49,49,0,0,0,6.18-6.21,47.08,47.08,0,0,0,4.64-6.65h0c4.08-7,3.76-11.06,2-20.44-1.65-6-.79-4.08-4.52-11.18a2.83,2.83,0,0,1-.09.27c-3.9,9.58-10.67,16.71-19.63,19.34a26.79,26.79,0,0,1-7.49,1.06,29.32,29.32,0,0,1-21.23-6.62c-4.7-3.73-13.63-14.7-18.27-27.18-.65-1.71-1.25-3.52-1.81-5.35a60.6,60.6,0,0,1-1.12-31.26c.18-.91.44-1.77.71-2.69a40.49,40.49,0,0,1,1.48-4.31,42.47,42.47,0,0,1,2.13-4.59c.41-.71.85-1.42,1.27-2.1,8.49-13.72,24.48-23.12,43.08-23.12,5.47,0,17.92,2.78,19.22,2.93a49.3,49.3,0,0,0-8.75-10.09,47.49,47.49,0,0,0-63.55.77s-1.33,1.27-1.48,1.39h0c-1.12,1.18-69.16,63.4,5.27,154.81,4.55,7,2.72,15.2-2.93,13.24s-21.26-26.29-31.11-29.75c-6.65-2.33,1.89,26,13,52.64,6.92,19.58,12,44.3,13.87,71.36,2.16,30.48.8,50.27-4.52,71.77-16.89-33.63-46.34-80.82-64.82-100.43-30.7-32.58-22.83,0-22.83,0s9,74.29,10.23,107.41l-68.4-108.35s-9.16-11.45-8.13,9.34c.47,9.7,2,38.06,3.52,65.44a292.66,292.66,0,0,1-17.45-47c-7.18-26.17-10.61-51.18-10.61-71.94,1.59-28.8.23-58.32-5.24-53.91-8.13,6.5-14.75,34.6-19.46,38.35s-9.16-3.4-7.15-11.53c33.68-107.37-39.86-143.95-39.86-143.95a.38.38,0,0,0-.21-.12,64.82,64.82,0,0,0-6.45-3.67l-.44-.2a.32.32,0,0,0-.21-.09l-.23-.12-.21-.12-.74-.3a47.49,47.49,0,0,0-60.18,20.38,48.05,48.05,0,0,0-4.91,12.42c.06.06.09.12.15.15-4.94,16.65-.56,36.37,11,49.56-.09-.8-.09-1.66-.18-2.49a27.77,27.77,0,0,1-.26-3v-.06c-.06-1.24-.3-2.46-.3-3.73,0-17.36,7-32.59,17.72-41.52a33.12,33.12,0,0,1,6.29-4.28c.09,0,.12-.09.24-.12a24.51,24.51,0,0,1,5.59-2.19,28.84,28.84,0,0,1,4.41-1,9.82,9.82,0,0,1,1.27-.29,4.48,4.48,0,0,1,.62.06,26.62,26.62,0,0,1,3.46-.45c21.85,0,39.56,22.33,39.56,49.83a59.09,59.09,0,0,1-6,26.23c-.38.89-.86,1.69-1.3,2.54-7.16,12.72-18.92,21.09-32.23,21.09-9,0-17.18-3.9-23.81-10.29h-.08a8,8,0,0,1,0,1.09,25.28,25.28,0,0,1,.57,4.53c0,14-12.25,25.69-28.9,29.39a7,7,0,0,0-.85.21,50.68,50.68,0,0,1-10,1.09c-.35,0-.65-.06-1-.09-.68,0-1.39-.09-2.07-.15a49.34,49.34,0,0,1-7.72-1c-1.8-.3-3.4-.27-5.32-.74-21.06-6-37.53-28.63-39-56.48-1.51-28.27,12.81-52.85,33.59-60.65C971.27,56.9,950.24,55.71,932,78.78c-44.66,56.39,30.51,113.32,30.51,113.32-16.14,2.8-29.72-3.7-35-6.19s-6.71-1.77-6.71-1.77c23.77,32.26,50.21,38.56,72.48,44.3s88.5,14.58,98.68,42.31-11,16.89-12.75,13.43,8-20.7-3.7-10.47-9.87,43.06,22.27,43.62,47.64,9.14,57.9,19.75c8.84,9.17,32.68,58.94,39.07,72.48-23.57,12.66-47.64,30.37-70.77,55.86l-79,70.68s2.78,24.92,41.54,16.61,94.37-29.09,104.75-17.38c.14.2.32.41.47.62l0,0c7.21,12.89-70.59,62.48-70.59,62.48s5,26.32,73.46,0c33.71-13,59.73-21.47,77.44-26.79s27.12-7.39,27.65-7.51l.06,0c4.32,2,8,4.82,12,7.33.09,17.1,1.8,59.59,1.83,59.56,12.51-7.87,21.12-20.85,25-35.1.35.53.5,1.12.86,1.66a102.44,102.44,0,0,0,8.69,66.32,80,80,0,0,1-7.07,15.77,88.82,88.82,0,0,1-23,24.54c69.64,55.45,106,115.41,114.29,188.52a337.12,337.12,0,0,1,.62,63.84c-1.18,15.52-3.25,31.32-5.88,47.31,27.32-22.23,48.17-48,60.62-76.08.38-.86.71-1.75,1.09-2.58a411.72,411.72,0,0,1-1.09,44.48c11.5-24.19,18.12-50,23-76.24a371.65,371.65,0,0,0,38.7-77.35c8.76,18.15,14.61,33.91,13.28,54,10.77-52.66,16.53-101.75,19.46-155.45,1.45-26.88,1.54-55.48-12.18-78.66,16.44,3.69,29.39,15.85,43.17,25.58s31.7,17.36,47.17,10.7c-26.23-4.85-44.66-28.92-55.21-53.4s-16-51.31-30-74c-11.47-18.72-28.68-33.56-48.53-42.94-.65-1.18-1.24-2.39-1.95-3.58,31.64-.41,66.63,2,86.2,26.35-5.44-34.27-31.76-62.33-62.33-78.84s-65.21-23.15-99.27-29.68A91.37,91.37,0,0,1,1472,380.34c-.42.06-.8.33-1.22.36.54-.8,1.57-1.24,2-2.13-1.21,2.66-43.26-1.36-48.17-1.51-11-.29-34.18-5.41-44.06.09-1.36.77-1.83,1.86-2.63,2.81,2.57-20.58,6.06-44,9.32-51.16,6.15-13.39,17.92-26.61,48.08-37.85s19.81-41.93,6.47-48.53c-13.89-6.92-1.83,7.69,0,11.09,4.77,8.67-16.82,21.18-16.47-8.42s59.91-60,79-72.72,41.93-27.53,53.64-65.85c0,0-1.57-.12-5.71,3.93s-14.75,14.73-30.93,17.42c0,0,52-78.63-8.84-117-9.58-6.06-18.36-8.54-26.2-8.54-12.45,0-22.48,6.35-29.39,14.9"/><g class="cls-3"><rect class="cls-1" x="185.85" y="2.28" width="1474.42" height="1427.67"/></g><path class="cls-1" d="M715.86,974.79c-1.39.44-2.9.82-4.26,1.33-2.75.91-5.32,2-7.92,3.1a112,112,0,0,0-30.23,20.47c-24.48,23.15-36.52,53-55.62,71.38-39.33,38-71.47,44.3-71.47,44.3l67.09,182.3L660.15,1430H823.68c-5.71-19.4-27.39-37.41-27.39-37.41s-66.27-3.67-81.58-5.44c-13.16-1.54-16.89-21.77-16.89-21.77-46.45-203.12-47.46-207.38-46.19-226.69,1.66-25.19,25.73-41.46,43.32-51.16,1.1-.62,2.22-1.27,3.26-1.83,57.63-25.43,111.75-59.32,134.93-75.17,8.69-5.94,13.19-9.4,11.65-8.87a409.41,409.41,0,0,0-44.53-20.26c-.77-.29-1.72-.74-2.46-1-.94-.44-2-.76-3-1.15-6.63-2.39-12.69-4.32-18.1-5.76-.53-.12-1-.24-1.54-.33-2.84-.77-5.29-1.21-7.78-1.72a125.93,125.93,0,0,0-18.09-1.33,120.78,120.78,0,0,0-33.45,4.74m718,37.34-9.52,7.75c-5.12,27.56-11.65,55.74-18.4,84.58l-.59,2.57c-7,30-13.39,49.41-15.34,55.06L1386,1355.34c6.27,10.53,16.09,21.79,21.44,22.5,8,1.09,26.38,2.6,41.61,3.79A68.78,68.78,0,0,1,1439,1370.8c.18-11.41,1.69-57,12.84-226,2-22.47,20.88-130.56,30.52-185.26-12.48,18.83-28.69,36.43-48.53,52.57"/><g class="cls-4"><rect class="cls-1" x="545.97" y="958.79" width="936.76" height="471.93" transform="matrix(1, 0, 0, 1, -1.97, 1.67)"/></g><path class="cls-1" d="M1497.6,1426.87l.86,3.08H1539c-5.44-19.29-18.8-35.52-18.8-35.52s-23-1.71-41.82-3.46c4.2,5.24,14.23,19.69,19.25,35.9m-210.13-355.8s12.92,50.39-17.24,71.59c2.25.3,23.69,114.56,35.63,179.32l16.36,108h169.59c-5.65-19.4-20-36-20-36s-50.57-3.46-65.8-5.56-30.69-30.28-30.69-30.28l4-197.86s7.42-20.5,15.58-55.6c35.4-152,65.21-275.45-86.23-394.27,3.79,7.3-207,151.55-21.26,360.74M490.14,408.7A64.18,64.18,0,0,0,462.08,417a70.09,70.09,0,0,0-22.15,20.32A77.17,77.17,0,0,0,426.42,478l-.06,1.74v3.55c.06.71.09,1.45.12,2.19l.2,2.22c.09.71.24,1.42.33,2.16l.44,2.13c.15.71.36,1.39.56,2.1a46.44,46.44,0,0,0,7.43,14.87,54.35,54.35,0,0,0,11,10.91,57.73,57.73,0,0,0,27.59,11,49.76,49.76,0,0,0,15.37-.53,44.33,44.33,0,0,0,26.53-16.06,57.11,57.11,0,0,0,7.42-12.74,11.5,11.5,0,0,0-20.91-9.58l-.14.29c-5.3,10.68-14.14,14.73-24.61,12.78a31.31,31.31,0,0,1-14.22-6.92,25.92,25.92,0,0,1-4.82-5.62,16.43,16.43,0,0,1-2.37-5.77c0-.23-.11-.44-.14-.68a6,6,0,0,0,0-.71,4.62,4.62,0,0,1-.09-.65,4.86,4.86,0,0,0,0-.68v-.68l.09-1.09.08-1.13.09-1.09a49,49,0,0,1,1.78-8.55,43.4,43.4,0,0,1,7.8-14.84,36.28,36.28,0,0,1,12.22-9.73,29.9,29.9,0,0,1,12-2.84,13.75,13.75,0,0,0,1.93,0h.35l.59,0h.39a21.83,21.83,0,0,0,3.13-.44,65.88,65.88,0,0,1,17.06.21,72.14,72.14,0,0,1,19.08,5.64,79.38,79.38,0,0,1,17.24,10.65,81.29,81.29,0,0,1,13.93,14.73l1.41,2.07c.48.71.92,1.39,1.37,2.1.85,1.41,1.74,2.92,2.36,4.16l.3.51.14.23,0,.09,0,.09.42.89c.29.71.59,1.42.88,2.19a42.89,42.89,0,0,1,1.39,4.34,43.52,43.52,0,0,1,1.54,9,45,45,0,0,1-.15,9.2,54.64,54.64,0,0,1-5.41,18.07,60.92,60.92,0,0,1-5.05,8.4,52.74,52.74,0,0,1-6,7.15,32.59,32.59,0,0,1-14,8.19c-5.44,1.54-12.07,2-19.14,1.54a173.8,173.8,0,0,1-22.41-3c-3.87-.72-7.75-1.54-11.65-2.4l-6.12-1.33c-2.1-.45-4.26-.92-6.42-1.3a231.75,231.75,0,0,0-26.35-3.7,172.87,172.87,0,0,0-27.41-.09,132,132,0,0,0-27.77,5.21,118,118,0,0,0-26.29,11.5,128.29,128.29,0,0,0-22.71,17,166.91,166.91,0,0,0-18.42,20.53,203.48,203.48,0,0,0-14.9,22.44,182.49,182.49,0,0,0-11.86,24.49,169.37,169.37,0,0,0-11.77,53.73,152.23,152.23,0,0,0,7.6,55.12A164.06,164.06,0,0,0,323.45,800a197.63,197.63,0,0,0,18.22,20.4,210,210,0,0,0,43.23,32.42q11.84,6.65,24.45,12.24c1.22.56,2.49,1.09,3.76,1.62A147,147,0,0,0,409,901.27a151.07,151.07,0,0,0,.8,15.53A6.89,6.89,0,0,0,409,920c1.36,128.87-159.39,223.12-159.39,223.12S199,1365.51,199.72,1365.54L185.86,1430H381.79c-5.67-19.4-20-36-20-36s-50.59-3.46-65.79-5.56-14.7-21.94-14.7-21.94c6.18-87.24,35-161,75.14-199.76,7.36-8.54,16.47-16.26,27.41-20.78,9-3.73,31.11-8.37,32.27-8.64,100.21-21.64,154-51.19,182.42-74.46,13.43-11,21.26-20.61,25.67-27.35,1.65-3.37,3.4-6.72,5.26-10v0a159.22,159.22,0,0,1,16.3-23.71c29.63-35.49,76.85-56.13,136.91-38.48,52.67,15.5,107.34,40.13,148.92,62.22,7.48,4.67,15.32,9.14,23.45,13.34,51.75,26.79,115.89,43.85,185.86,47,7.71.32,15.46.53,23.27.53q23,0,45.18-2a490.94,490.94,0,0,0,66.42-10.38c-35.78-41.34-59.2-83.36-69.46-125a204,204,0,0,1,2.45-108.2c18.69-62.69,63.43-107.37,82.59-126.48.83-.82,1.75-1.74,2.61-2.63a133.88,133.88,0,0,0-85.52,2.75,144.18,144.18,0,0,0-22.68,10.77c-.06,0-.12.06-.18.09-1.3.79-2.6,1.59-3.91,2.36,0,0-.08,0-.11,0a251.18,251.18,0,0,1-26.74,13.66c-34.27,15-74.19,23.51-116.74,23.51-41.46,0-80.38-8.1-114-22.36Q913,735.69,900.8,729.76c-3.76-1.86-7.57-3.64-11.5-5.41C840.47,702.58,782.1,690,719.41,690,610,690,513.86,728.43,458.56,786.6v0a194.25,194.25,0,0,0-31.88,44.12c-1.18-.32-2.33-.7-3.52-1.06a117.88,117.88,0,0,1-20.22-9,180.93,180.93,0,0,1-18.84-12.09,192,192,0,0,1-17.24-14.41,151.49,151.49,0,0,1-14.93-16.35,126.57,126.57,0,0,1-21-37.82,116.63,116.63,0,0,1-6.39-42.4,130.9,130.9,0,0,1,9-42.65A153.16,153.16,0,0,1,343,634.8a167.84,167.84,0,0,1,12.33-18.86c8.9-11.92,19.25-22.12,31.2-29.19s25.31-11.09,39.71-12.3a137.72,137.72,0,0,1,22.06,0A201.19,201.19,0,0,1,471,577.62c1.89.32,3.82.73,5.71,1.15l6,1.27c4.17.92,8.34,1.8,12.63,2.57A206.35,206.35,0,0,0,522,586.16a117,117,0,0,0,14.49-.06,78.11,78.11,0,0,0,15.44-2.63,63.81,63.81,0,0,0,15.29-6.39,68.08,68.08,0,0,0,13.07-9.93,87.29,87.29,0,0,0,10-11.71A100.84,100.84,0,0,0,598,542.66a89.56,89.56,0,0,0,8.93-29.1,82.57,82.57,0,0,0-2.19-31c-.65-2.51-1.48-5-2.33-7.42-.48-1.18-1-2.37-1.42-3.55l-.39-.86-.47-1.06-.12-.33-.15-.2-.2-.45-.48-.88c-1.24-2.43-2.42-4.47-3.69-6.6l-2-3.13-2.07-3a113.38,113.38,0,0,0-44.32-37.05A108.49,108.49,0,0,0,519,409.24a101.58,101.58,0,0,0-16.18-1.31,106.64,106.64,0,0,0-12.63.77m853.69-43.58c.57-2.31,1.1-4.71,1.6-7.13l-22.65-34.16c8,14.61,15.35,29.19,21,41.29m-21-41.29c-14.76-27-31.67-54.23-44.12-66.47ZM1194.62,453.71c-2-4.94,7.51-13.54,21.26-19.19s26.64-6.21,28.68-1.24-7.51,13.54-21.29,19.16c-7.51,3.07-14.72,4.64-20.08,4.64-4.49,0-7.66-1.09-8.57-3.37m-168.56-397a48.05,48.05,0,0,0-4.91,12.42c.06.06.09.12.15.15-4.94,16.65-.56,36.37,11,49.56-.09-.8-.09-1.66-.18-2.49a27.77,27.77,0,0,1-.26-3v-.06c-.06-1.24-.3-2.46-.3-3.73,0-17.36,7-32.59,17.72-41.52a33.12,33.12,0,0,1,6.29-4.28c.09,0,.12-.09.24-.12a24.51,24.51,0,0,1,5.59-2.19,28.84,28.84,0,0,1,4.41-1,9.82,9.82,0,0,1,1.27-.29,4.48,4.48,0,0,1,.62.06,26.62,26.62,0,0,1,3.46-.45c21.85,0,39.56,22.33,39.56,49.83a59.09,59.09,0,0,1-6,26.23c-.38.89-.86,1.69-1.3,2.54-7.16,12.72-18.92,21.09-32.23,21.09-9,0-17.18-3.9-23.81-10.29h-.08a8,8,0,0,1,0,1.09,25.28,25.28,0,0,1,.57,4.53c0,14-12.25,25.69-28.9,29.39a7,7,0,0,0-.85.21,50.68,50.68,0,0,1-10,1.09c-.35,0-.65-.06-1-.09-.68,0-1.39-.09-2.07-.15a49.34,49.34,0,0,1-7.72-1c-1.8-.3-3.4-.27-5.32-.74-21.06-6-37.53-28.63-39-56.48-1.51-28.27,12.81-52.85,33.59-60.65C971.27,56.9,950.24,55.71,932,78.78c-44.66,56.39,30.51,113.32,30.51,113.32-16.14,2.8-29.72-3.7-35-6.19s-6.71-1.77-6.71-1.77c23.77,32.26,50.21,38.56,72.48,44.3s88.5,14.58,98.68,42.31-11,16.89-12.75,13.43,8-20.7-3.7-10.47-9.87,43.06,22.27,43.62,47.64,9.14,57.9,19.75c8.84,9.17,32.68,58.94,39.07,72.48-23.57,12.66-47.64,30.37-70.77,55.86l-79,70.68s2.78,24.92,41.54,16.61,92-31.52,102.41-19.81c.15.24,2.81,3.05,2.81,3.05l0,0c7.21,12.89-70.59,62.48-70.59,62.48s5,26.32,73.46,0c33.71-13,59.73-21.47,77.44-26.79s27.12-7.39,27.65-7.51l.06,0c4.32,2,8,4.82,12,7.33.09,17.1,1.8,59.59,1.83,59.56,12.51-7.87,21.12-20.85,25-35.1.35.53.5,1.12.86,1.66a102.44,102.44,0,0,0,8.69,66.32,80,80,0,0,1-7.07,15.77,88.82,88.82,0,0,1-23,24.54c69.64,55.45,106,115.41,114.29,188.52a337.12,337.12,0,0,1,.62,63.84c-1.18,15.52-3.25,31.32-5.88,47.31,27.32-22.23,48.17-48,60.62-76.08.38-.86.71-1.75,1.09-2.58a411.72,411.72,0,0,1-1.09,44.48c11.5-24.19,23-76.24,23-76.24s28.29-48.73,38.7-77.35l-292.1-559s9,74.29,10.23,107.41l-68.4-108.35s-9.16-11.45-8.13,9.34c.47,9.7,2,38.06,3.52,65.44a292.66,292.66,0,0,1-17.45-47c-7.18-26.17-10.61-51.18-10.61-71.94,1.59-28.8.23-58.32-5.24-53.91-8.13,6.5-14.75,34.6-19.46,38.35s-9.16-3.4-7.15-11.53c33.68-107.37-39.86-143.95-39.86-143.95a.38.38,0,0,0-.21-.12,64.82,64.82,0,0,0-6.45-3.67l-.44-.2a.32.32,0,0,0-.21-.09l-.23-.12-.21-.12-.74-.3a47.92,47.92,0,0,0-18.81-3.84,47.28,47.28,0,0,0-41.37,24.22m430.83-39.51c22.17.5,43.85,18.9,51.8,46,7.87,26.82-.11,53.65-18,66.27,0,0-.08.09-.08.15s-.12.12-.18,0a39.71,39.71,0,0,1-11.65,5.59,40.5,40.5,0,0,1-17.92,1.09c-6,12.75-14.73,29.81-21.38,35.28-11.06,9.14-28,14.79-34.81,23.81s-1.68-14,5.09-24.16c2.42-3.67,5.68-7.93,8.84-11.83a49,49,0,0,0,6.18-6.21,47.08,47.08,0,0,0,4.64-6.65h0c4.08-7,3.76-11.06,2-20.44-1.65-6-.79-4.08-4.52-11.18a2.83,2.83,0,0,1-.09.27c-3.9,9.58-10.67,16.71-19.63,19.34a26.79,26.79,0,0,1-7.49,1.06,29.32,29.32,0,0,1-21.23-6.62c-4.7-3.73-13.63-14.7-18.27-27.18-.65-1.71-1.25-3.52-1.81-5.35a60.6,60.6,0,0,1-1.12-31.26c.18-.91.44-1.77.71-2.69a40.49,40.49,0,0,1,1.48-4.31,42.47,42.47,0,0,1,2.13-4.59c.41-.71.85-1.42,1.27-2.1,8.49-13.72,24.48-23.12,43.08-23.12,5.47,0,17.92,2.78,19.22,2.93a49.3,49.3,0,0,0-8.75-10.09,47.49,47.49,0,0,0-63.55.77s-1.33,1.27-1.48,1.39h0c-1.12,1.18-69.16,63.4,5.27,154.81,4.55,7,2.72,15.2-2.93,13.24s-21.26-26.29-31.11-29.75c-6.65-2.33,1.89,26,13,52.64,6.92,19.58,12,44.3,13.87,71.36s.18,51.95-4,72.27l236.69,356.69c1.45-26.88,1.54-55.48-12.18-78.66,16.44,3.69,29.39,15.85,43.17,25.58s31.7,17.36,47.17,10.7c-26.23-4.85-44.66-28.92-55.21-53.4s-16-51.31-30-74c-11.47-18.72-28.68-33.56-48.53-42.94-.65-1.18-1.24-2.39-1.95-3.58,31.64-.41,66.63,2,86.2,26.35-5.44-34.27-31.76-62.33-62.33-78.84s-65.21-23.15-99.27-29.68A91.37,91.37,0,0,1,1472,380.34c-.42.06-.8.33-1.22.36.54-.8,1.57-1.24,2-2.13-1.21,2.66-43.26-1.36-48.17-1.51-11-.29-34.18-5.41-44.06.09-1.36.77-1.83,1.86-2.63,2.81,2.57-20.58,6.06-44,9.32-51.16,6.15-13.39,17.92-26.61,48.08-37.85s19.81-41.93,6.47-48.53c-13.89-6.92-1.83,7.69,0,11.09,4.77,8.67-16.82,21.18-16.47-8.42s59.91-60,79-72.72,41.93-27.53,53.64-65.85c0,0-1.57-.12-5.71,3.93s-14.75,14.73-30.93,17.42c0,0,52-78.63-8.84-117-9.58-6.06-18.36-8.54-26.2-8.54-12.45,0-22.48,6.35-29.39,14.9"/><g class="cls-5"><rect class="cls-1" x="185.85" y="2.28" width="1474.42" height="1427.67"/></g><path class="cls-1" d="M715.51,957.28c-27.83,5.91-52.4,22.65-69.67,44.42,18.33-20.94,43.32-36.05,70.49-40.49,27.21-5.2,54.74.39,80.67,9.79,52.43,18.13,103.35,40.69,151.38,68.78,49.74,26.65,105.15,41.37,160.87,46.84a485,485,0,0,0,83.92.54c14-.21,27.77-3.05,41.55-5.62l41.16-7.48.3-.06-.21-.24-5.06-5.62,4.56,5.62c-55,8.31-110.45,13.6-165.54,6.33-54.86-6.51-109.18-21.2-157.62-47.7-48.5-27.5-100-50.54-153.33-67.45-18.27-6.09-37.94-10.47-57.57-10.47a116.29,116.29,0,0,0-25.9,2.81"/><g class="cls-6"><rect class="cls-1" x="645.84" y="954.47" width="630.34" height="134.88"/></g><path class="cls-1" d="M454.13,541.92c-2.19-.12-4.35-.2-6.54-.23,2.19.08,4.35.17,6.54.23m-29.49-.74c-9.61,1.78-19.75,2.28-29.21,5.12-9,4.11-18.84,6.89-27.24,12.27-7.78,6.09-16.85,11-23.71,18.25a184.48,184.48,0,0,0-35.17,48,167.41,167.41,0,0,0-19.1,56.63c-5.68,39.89,5.06,81.64,28.69,113.88,24,32.08,57,56.12,93.65,70.23-35.4-16.92-66.21-42.44-88.36-73.9-21.59-31.76-31.67-71.18-25.7-109,5.06-37.94,24.66-73.34,50.51-101.31,24.87-26.67,61.6-40.13,98.59-39.68-6-.27-12-.63-18-.63-1.63,0-3.28,0-4.94.12"/><g class="cls-7"><rect class="cls-1" x="284.53" y="541.07" width="169.59" height="324.55"/></g><path class="cls-1" d="M1206.51,716.16h0M680.76,689.39C639,693.06,597.66,702.55,559,718.73s-74.51,39.54-102.81,70.2c29.39-29.72,66.12-50.83,104.47-66.09,38.44-15.5,79.37-24.34,120.59-27.38,82.39-6,167,10.11,238.67,51l.27.14.2.09c41.73,17.24,87.33,23.9,132.07,21.32,44.65-2.84,89.42-14.55,127.63-38.2l-.24.09h0l.33-.15,3.9-2.46-.18.09a143.32,143.32,0,0,1,22.57-11.23l.09,0c15.49-6,32-9.88,48.82-10.3-16.71-.2-33.36,3-49.24,8.49H1206l-.14.09a143.08,143.08,0,0,0-23.1,10.35l-.21.15-4,2.25,0,0C1101.2,770.3,1004.06,774.06,923.3,740c-60.8-36.7-131.86-52.34-202.18-52.34-13.51,0-27,.59-40.36,1.71"/><g class="cls-8"><rect class="cls-1" x="456.17" y="687.68" width="799.16" height="101.25"/></g><path class="cls-1" d="M1385.56,801.47c20.34,35.66,30.34,76.47,31.49,117.31,1.51,41-5,81.79-12.8,122-8.87,40-15.73,80.76-29.72,119.41,14.4-38.53,21.67-79.19,30.93-119.18,8.25-40.15,15.26-81,14-122.33-1.57-41.11-12.07-82.21-32.89-117.84-21-35.52-50.47-65.18-82.71-90.52,32,25.67,61,55.57,81.68,91.14"/><g class="cls-9"><rect class="cls-1" x="1303.88" y="710.33" width="116.84" height="449.87"/></g><path class="cls-1" d="M1288.74,1110.25c-2.24,12.42-7.72,24.25-17.56,31.52l-1.33,1,.26,1.6c3.85,24.39,8.79,47.75,13.34,71.59l14.28,71.15c5.21,23.65,9.2,47.22,12.57,71.26s7.78,47.73,11.92,71.6c-2-24.14-3.82-48.29-6.48-72.39l-3.84-36.14-6.57-35.84c-8.54-47-19-94.21-29.21-140.49,9.81-9,15.08-21.8,16.05-34.36a106.33,106.33,0,0,0-4.34-38.69,104.59,104.59,0,0,1,.91,38.21"/><g class="cls-10"><rect class="cls-1" x="1269.85" y="1072.04" width="52.37" height="357.9"/></g><path class="cls-1" d="M715.86,974.79c-1.39.44-2.9.82-4.26,1.33-2.75.91-5.32,2-7.92,3.1a112,112,0,0,0-30.23,20.47c-24.48,23.15-36.52,53-55.62,71.38-39.33,38-71.47,44.3-71.47,44.3l67.09,182.3L660.15,1430H823.68c-5.71-19.4-27.39-37.41-27.39-37.41s-66.27-3.67-81.58-5.44c-13.16-1.54-16.89-21.77-16.89-21.77-46.45-203.12-47.46-207.38-46.19-226.69,1.66-25.19,25.73-41.46,43.32-51.16,1.1-.62,2.22-1.27,3.26-1.83,57.63-25.43,111.75-59.32,134.93-75.17,8.69-5.94,13.19-9.4,11.65-8.87a409.41,409.41,0,0,0-44.53-20.26c-.77-.29-1.72-.74-2.46-1-.94-.44-2-.76-3-1.15-6.63-2.39-12.69-4.32-18.1-5.76-.53-.12-1-.24-1.54-.33-2.84-.77-5.29-1.21-7.78-1.72a125.93,125.93,0,0,0-18.09-1.33,120.78,120.78,0,0,0-33.45,4.74m718,37.34-9.52,7.75c-5.12,27.56-11.65,55.74-18.4,84.58l-.59,2.57c-7,30-13.39,49.41-15.34,55.06L1386,1355.34c6.27,10.53,16.09,21.79,21.44,22.5,8,1.09,26.38,2.6,41.61,3.79A68.78,68.78,0,0,1,1439,1370.8c.18-11.41,1.69-57,12.84-226,2-22.47,20.88-130.56,30.52-185.26-12.48,18.83-28.69,36.43-48.53,52.57"/><g class="cls-4"><rect class="cls-1" x="545.97" y="958.79" width="936.76" height="471.93" transform="matrix(1, 0, 0, 1, -1.97, 1.67)"/></g><path class="cls-1" d="M631.64,1021.18l0,0c0-.06,0-.09.06-.11a.42.42,0,0,0-.09.14m1.6.39h0m-1.51-.53a.12.12,0,0,1,.09-.06l-.15.17,0,.06-.09.36a.91.91,0,0,1,.09-.39l-5.59,9.88.09-.12c-14.87,20.26-36.16,34.81-57.93,47-22.06,12.09-45.54,21.41-69.34,29.69a713.94,713.94,0,0,1-73,19.9c-12.33,2.72-24.86,5.29-37.31,9.43-12.9,4.47-23.54,13.22-32,23.13C329.84,1187,312.69,1221,300.86,1256c-12,35.1-17.77,72-19.52,108.7a443.63,443.63,0,0,1,24.6-106.9c13-34,30.52-66.92,56.07-92.23l.15-.15.12-.15c8-9.16,17.71-16.88,28.89-20.61,11.68-3.78,24.13-6,36.52-9.05a712.35,712.35,0,0,0,73.6-20.93c24.1-8.43,47.7-18.66,69.73-31.79,21.79-13.1,43.17-28.77,57.07-50.69l.06-.06,0-.09,4.85-9.9a1.3,1.3,0,0,0,.12-.21,154.34,154.34,0,0,1,15.67-23.65A156.23,156.23,0,0,0,631.73,1021"/><g class="cls-11"><rect class="cls-1" x="281.34" y="998.3" width="367.48" height="366.42"/></g><path class="cls-1" d="M253.28,1144.11h0M403.44,950.63c-5.44,27.38-17.74,53.08-33.65,76-32,45.84-75.59,83.34-122.57,113.11l-1.54,1-.39,1.66C224.62,1238,202.62,1333.42,185.86,1430c22.68-94.66,45.74-189.23,67-284.15,24-14.76,45.9-32,66.48-50.9,20.85-19.4,40.25-40.63,56-64.55s27.53-50.66,32.29-78.95c5.17-28.39-1.51-56.87,5.14-84.64-8,27.42-3,56.75-9.37,83.87"/><g class="cls-12"><rect class="cls-1" x="185.85" y="866.76" width="226.99" height="563.18"/></g><path class="cls-1" d="M1020.44,70.11l-.14.68.14.12a55.09,55.09,0,0,0,11.77,49.62l1.3,1.48-.23-2c-.62-6.21-1.1-12.63.09-18.78a55.79,55.79,0,0,1,5.94-17.77c5.65-11.18,16.41-20,28.8-21.2l0,0c14.08-2.1,27.53,7.27,34.28,19.28,7.12,12,9.22,26.88,6.56,40.57s-10.23,27-22.56,33.53c-12.3,6.83-28,3.43-37.47-6.53l-.12-.15-.15-.06-2.86-1.57,0,3.11v1.3l0,.12c3.91,18.36-16,32.11-33.35,33.21-4.47.65-9-.33-13.52-.86a31.62,31.62,0,0,1-13-3.37A51.36,51.36,0,0,1,965.83,163c-10.27-15.14-13.87-34.63-10.27-52.64,3.43-17.8,14.64-35.1,31.82-41.64l2.22-.82-2-1.33c-13.87-9.35-33.77-8.43-46.34,2.78-12.51,10.58-21.56,25.46-23.74,41.81-2,16.5,3.57,32.88,12.06,46.6a145.58,145.58,0,0,0,30.81,34.93,50.74,50.74,0,0,1-18.63-1.16,70.52,70.52,0,0,1-10.11-3.37c-3.37-1.21-6.27-3.52-10.59-3.25l-.79,0,.56.8c11.29,15.58,26.94,28.18,45,35s37,10.29,55.65,14.67c18.48,4.58,37.35,9.43,53.79,19.22,8.19,4.79,15.23,11.89,17.68,21.17,1.1,4.29,2.87,9.85-.09,13.1-3.58,2.34-9-.35-12.18-3.1-1.74-3.49.77-8.93.44-13.72.57-1.48-2.13-3.2-3.19-1.72a13,13,0,0,0-2.81,2.48,24.16,24.16,0,0,0-4.26,6c-4.23,8.81-3.9,19.87,1.69,28.06,5.65,8.43,16.2,11.62,25.7,11.65a121.3,121.3,0,0,1,28.29,3.67,63.35,63.35,0,0,1,25.14,12.86c7.39,6,11.47,15,16.23,23.21,9.11,16.86,17.36,34.19,25.55,51.55l1.28-.62c-8.22-17.36-16.48-34.69-25.58-51.58-4.76-8.19-9-17.33-16.59-23.56A64.46,64.46,0,0,0,1126.93,321a123.4,123.4,0,0,0-28.63-3.69c-9.37,0-19.31-3.13-24.69-11.06-5.26-7.72-5.62-18.42-1.54-26.79a21.52,21.52,0,0,1,4-5.71c1.48-1.42,4-4.2,3.84-1.51.5,4.62-2.54,9.23-.09,14.46,3.67,3,8.87,6.12,13.87,3.2,3.76-4.5,1.42-9.94.5-14.41-2.57-9.55-10-17-18.27-21.82-16.68-9.93-35.6-14.78-54.18-19.34-18.65-4.4-37.64-7.77-55.5-14.58a98.21,98.21,0,0,1-43.88-33.8c2.78.33,5.85,2.19,8.72,3.46a67.43,67.43,0,0,0,10.26,3.67,52,52,0,0,0,21.76,1.36l2.4-.38-2-1.54-.36-.27a144.14,144.14,0,0,1-31.73-35.63c-8.31-13.48-13.63-29.37-11.68-45.16s10.94-30.16,23-40.27c11.41-10,28.54-11.3,41.58-3.79-16.89,7.66-27.45,25-30.67,42.62-3.4,18.48-.29,38.41,10.2,54.32a54.49,54.49,0,0,0,21,18.89c4,2.31,9.4,3.43,13.72,3.76,4.7.59,9.43,1.66,14.25,1,9.47-.94,19-4.14,26.47-10.43,6.48-5.39,11.24-13.93,10.73-22.72,10.62,8.08,26,9.91,37.56,2.87,13-7.27,20.73-21.11,23.45-35.22s.44-29.45-7-42c-7-12.36-21.23-22.18-36-19.93h.06c-13.27,1.42-24.25,10.74-30,22.18a57.65,57.65,0,0,0-6,18.22c-1.06,5.73-.73,11.38-.2,17.09-10.26-13.19-13.84-31.38-9.11-47.26l.18-.65-.15-.15c5.12-20.25,25.14-35,45.39-33.82,20.11,1.33,38.71,14.49,52.55,29.66,14.1,15.58,21.76,36.43,23.18,57.48s-3.13,42.35-9.78,62.51l0,.06c-.89,4.59-1.33,12.1,5.58,13.75,6.57-1.89,6.54-8.31,8.91-12.44,3.78-9.11,6.56-19.2,12.77-26.53,1.63-2.37,2.43.18,3.16,2.54a44.84,44.84,0,0,1,1.28,7.22c.5,4.94.71,9.93.79,14.87.21,10-.29,19.87-.65,29.93a268.68,268.68,0,0,0,28.51,115.65l.09,0c-16-36.49-25.55-75.91-26.7-115.62.23-9.88.71-20,.41-29.93-.09-5-.32-10-.89-15a59.61,59.61,0,0,0-1.3-7.51,11.14,11.14,0,0,0-1.62-3.73c-1-1.74-3.85-.5-4.23.48-6.83,8-9.44,17.86-13.34,27-2,4.11-3.43,10.49-7.21,11.14-3.94-.5-4.91-7.15-3.76-11.29v0c6.42-20.38,11-41.67,9.76-63.2-1-21.38-7.9-43-21.88-59.88-13.67-16.17-32.18-32.14-55.54-32h-.41c-22.71,0-42.73,17.53-47.38,38.76"/><g class="cls-13"><rect class="cls-1" x="915.52" y="31.23" width="279.24" height="378.66"/></g><path class="cls-1" d="M697.11,1090.2h0m-2.84-5.91-.12.06-.11.06c-15.53,8.1-31.41,18-41.55,33.89-10.76,16.44-7.78,36.84-4.82,53.55,6.33,34.6,14.52,68.46,22.35,102.52,8.4,34.16,14.82,67.63,25,102.23a28.75,28.75,0,0,0,8.61,11.68c4.29,3.4,10,3.46,14,3.7l26.26,1,52,.74c11.5,9.85,22.62,21.47,27.86,36.2-4.47-15.17-15.2-27.59-26.62-38.39l-.23-.23-.51,0-52.28-3-26-1.8c-9.32.38-14-4.32-17.3-12.31-8.13-32.7-15.38-67.86-23-101.57-7.42-34.1-15.4-68.2-22.2-102.2-3.17-16.8-5.62-34.39,3.34-48.26,8.6-13.93,23.42-23.48,38.23-31.94a813.38,813.38,0,0,0,138.25-81.44,1008.08,1008.08,0,0,1-141,75.5"/><g class="cls-14"><rect class="cls-1" x="641.73" y="1008.79" width="193.57" height="421.15"/></g><path class="cls-1" d="M1494.14,129.85l-.14.35c.06-.17.09-.32.14-.35m-4.87-1.84,0,0s0,.06-.06.06Zm.94-.79c.27-.15.27-.33.62-.45,2.13-.26,2.6.92,2.6.92ZM1456.29,15.64l-2.24,3.05,3.72.12c24.1.8,43.47,21.67,49.71,44.32,6.77,22.42,1.89,50.16-17.39,63.88l-.23.18c-4.47,1.8-8.58,4.55-13.25,5.7a39,39,0,0,1-14.37.36l-2.1-.33-.89,1.92c-4.55,9.7-9.4,19.4-15.23,28.13-5.2,8.69-15.52,13-24.75,18.66-4.67,2.75-9.55,5.56-13.69,9.84l-.24.33c.24-1.36.33-2.63.68-4,2.16-10.5,8.61-18.66,15.23-27.15a62.18,62.18,0,0,0,11.18-13.22l-1.48,1.1,1.48-1.1c4.61-6.38,3.93-15.55,2.39-22.06l0-.18a39.79,39.79,0,0,0-4.71-11.71l-1.3-2.18c-1.18,2.72-3.25,4.49-4.91,6.71-8.1,9.64-27.41,20.88-47.4,4a57.83,57.83,0,0,1-8.63-11.38c-7.43-12.33-11.18-27.24-9.11-41.7,1.65-14.52,11.12-27.71,24.22-34.48a52,52,0,0,1,21.14-5.88c7.36,0,14.7,1.77,22.06,2.6l.36.06-.24-.27c-4.82-5.23-8.93-11.12-15.11-14.87a47.32,47.32,0,0,0-19.93-7.46,50.47,50.47,0,0,0-40.49,12.84l1.63-.65-1.63.68c-21.32,20-33,50.06-31.08,79.63a124.54,124.54,0,0,0,12,42.14c6.27,13.1,14.64,24.87,23.54,36.2,3,3.49,2.31,10.56.71,9.22-2.78-1-7.31-6.65-10.74-10.46-3.69-4.26-7.45-8.58-11.62-12.6a36.09,36.09,0,0,0-7.21-5.5c-.53-.36-4.64-2.72-6.77,1.09-1,2.46-.54,3.76-.51,5.39,3.43,23.33,15.5,43,20.88,64.61,11.09,43.29,14.76,82.32,5,126.27,10.56-44.12,8.93-83.13-1.63-127.16-5.26-22.18-16.91-42.37-19.69-64.11a8.12,8.12,0,0,1,.09-2.16c.17.06.11.06.44.21a33,33,0,0,1,6.09,4.82c3.91,3.87,7.48,8.16,11.12,12.45,4.2,4.17,5.88,9,13.6,12.45,5.47,1.3,8.58-5.27,8-8.13a18.53,18.53,0,0,0-3-9.5l-.06-.06-.12-.2c-8.51-11.21-16.53-22.83-22.32-35.55a120,120,0,0,1-10.83-39.92C1324.14,73,1335,45.1,1354,24.69c9.11-9.87,23.12-15.79,37-14.49a45.63,45.63,0,0,1,19.87,6.27c6.33,3.19,10.35,9.17,14.91,14.37-7.25-1-14.43-2.84-21.8-3a52.8,52.8,0,0,0-21.59,5.61c-13.48,6.66-23.83,19.94-26.17,35.11-2.78,15,.6,30.81,7.93,44.15,4.79,9.22,10.82,18.18,23.15,23.06,31.53,3.31,40.34-14.81,40.34-14.81a1.74,1.74,0,0,1,0-.3,25.54,25.54,0,0,1,2.36,5.74c1.42,7,2.1,13.07-1.71,18.69a59.54,59.54,0,0,1-10.26,12.3l-.27.18-.09.11c-6.68,8.49-13.57,17.89-16.08,29a36.63,36.63,0,0,0-1.51,8.61c.26.89-.59,1.8,1.71,3.93,3.67.83,3.67-1,4.53-1.33l2.66-3.07c3.46-3.49,8.1-6.21,12.74-8.85,9-5.41,20.14-9.7,26.68-19.84,6.09-8.69,10.61-18,15-27.35a41.7,41.7,0,0,0,14.31-.47c5.35-1.36,10-4.5,15-6.72l-.2-.06a4.25,4.25,0,0,0,1-.71c.06-.06.09-.17.18-.23a.23.23,0,0,0,.06-.15l0,.15c20.76-16.21,25-45.42,17.65-68.67-6.77-22.32-25.43-42.93-49.85-46,9.78-10.68,25.28-15,38.91-9.49,14.49,5.47,27.44,16.35,34.54,30.16,13.28,29.25,1.48,63.49-14.52,89.93l-2.28,3.81,4.29-.74a53.69,53.69,0,0,0,20.58-8.37,70,70,0,0,0,8.73-6.89c.56-.59,1.27-1.21,2-1.83-5.38,14.28-13,27.68-24.13,38-13.4,11.62-28.83,20.79-44.06,30.46s-30.7,19.63-43.92,32.53c-12.92,11.35-25.55,33.38-10.79,50.27,5.12,3.25,11.71,0,13.63-5.12,2-6.54-3.66-9.88-5.08-13.48a7.9,7.9,0,0,1-1.39-3,17.72,17.72,0,0,1,4.49,2,21.68,21.68,0,0,1,8.19,9.2c3.91,7.51,4.56,17.06-.06,24.16-4.52,7.42-12.68,10.7-21.32,13.9-16.62,6.86-33.62,17.24-42,34.39-6.83,17.71-7.3,35.78-9.4,53.79l-.33,2.63,1.75-2,1.51-1.95-1-.77c3.07-16.89,4.73-34.69,10.7-50,7.75-16,23.78-25.93,40.1-32.7,8-3,17.89-6.83,23-15.38,5.38-8.37,4.52-19.28.24-27.62a26.66,26.66,0,0,0-9.64-10.68c-2.34-1.12-3.85-2.33-7.37-2.48-5.59,3.91-.53,6.57-.47,8.34,2.16,4.14,6.36,7.54,4.82,10.5-1.18,3.28-5.77,5.41-8.55,3.4-5.47-4.64-5.5-15.94-3.1-23.21,2.87-8,8.84-14.82,15.17-20.91,12.95-12.16,28.33-21.71,43.68-31,31.19-16.71,63.16-42.11,72.42-78.81l.85-3.58-2.78.8c-6.06,1.72-7,4.91-10,7.13a68.58,68.58,0,0,1-8.13,6.53c-4.41,3-9.47,4.56-14.52,6a149.27,149.27,0,0,0,16.23-40.31c3.31-15.94,3.2-33.39-4.05-48.61-7.69-14.91-21.23-26.2-36.73-32.12A36,36,0,0,0,1488.05,0a40.07,40.07,0,0,0-31.76,15.64"/><g class="cls-15"><rect class="cls-1" x="1317.75" width="244.08" height="382.18"/></g><path class="cls-1" d="M1154.05,436.83c-12.78,10.29-24,22.29-36.41,33l-73,65.73-.26.24,0,.3c1.33,12,13.89,17.65,24.19,18.09,10.76.89,21.41-1,31.78-3.34,20.56-5.59,40.75-12.06,61.63-15.61a133.12,133.12,0,0,1,15.61-1.95c4.56-.3,12.13-.15,13,2.36-3.14,9-11.68,16.89-19,24-15.55,14.29-33,26.47-50.71,38l-.65.45.23.53c3.61,8.63,13.22,10.17,20.76,10.76,8.05.48,15.91-.85,23.69-2.15,15.55-3.11,30.55-8.23,45.21-13.93s29.66-10.59,44.57-15.68c15-4.76,29.84-10.38,45.21-13.21l11.8,7.15,1.84,58.47L1312,571.46v-.12l-.09-.08L1300,564l-.06-.06h-.09c-15.64,2.78-30.43,8.31-45.48,13-15,5-30,9.66-44.68,15.37s-29.72,10.53-45.13,13.55c-7.71,1.21-15.49,2.48-23.27,2-7.15-.42-15.91-2.6-18.83-8.9,17.65-11.36,35-23.33,50.68-37.44,7.57-7.51,16.06-14.25,20-25.46-.77-4.91-5.12-4.29-7.42-4.94a47,47,0,0,0-8.13-.06,138.65,138.65,0,0,0-15.94,2.07c-21,3.76-41.31,10.41-61.63,16.12-10.26,2.42-20.79,4.32-31.23,3.49-10-.33-21.46-5.74-22.91-16.21l72.33-66c12.33-10.82,23.45-22.89,36.16-33.27s25.7-20.46,40.52-27.53c-14.88,7-28.13,16.92-40.75,27.27"/><g class="cls-16"><rect class="cls-1" x="1044.34" y="409.56" width="269.1" height="220.48"/></g><path class="cls-1" d="M1550.86,817.26h0M1379.73,377.83l.83.42c5.74-4.2,14.64-3.29,22-3.11a230.91,230.91,0,0,1,23,2.93c14.31,2.22,28.71,4.37,43.47,2.78-9.17,10.73-17.89,22.21-21.94,36.19l-.42,1.36,1.51.15c34.33,3.76,68.7,12.45,99.33,28.57,15.29,8.07,29.48,18.45,40.69,31.58a94.39,94.39,0,0,1,20.55,41.43c-4.4-4.67-9.9-7.81-15.52-10.53a102,102,0,0,0-22.27-7.27c-15.26-3.4-30.87-4.08-46.37-3.94l-4.7,0,4.14,2.28c16.53,9,32.09,20.49,44.42,34.75,13.28,13.95,16.94,33.17,23.63,51s13.15,35.87,22.71,52.63c5,8.55,12.45,14.64,19.25,21.53,6.44,5.44,14.16,8.81,21.91,11.47-5.56.86-12-.23-17.74-1.47a132.64,132.64,0,0,1-21.21-7.16c-15-10-28.15-24-46.75-28.65l-2.33-.6.88,2.22c7.48,18.22,14.11,36.7,13.25,56.45,0,19.55-2.19,39.1-4.29,58.61-4.08,35.64-8.93,71.21-14.07,106.73-1.75-14.64-5.06-29.22-12.93-42.11l-1.24-2-.94,2.27c-5.3,13.31-11,26.44-17.27,39.3s-12.84,25.64-21.47,36.85l-.12.18.65,1.92c-1.77,3.84-2.54,12.27-4.26,18.15l-5,19.34c-3.69,12.78-7.63,25.55-13.33,37.59,6.09-11.86,10.44-24.54,14.52-37.26l5.62-19.22,2.48-9.73c.18-3.61,2.45-5.18.89-10.38l.35,1.09.15-.14c8.87-11.54,15.44-24.43,21.76-37.32,5.92-12.22,11.36-24.58,16.45-37.17,8.28,14.63,10.94,32.17,12.24,49l.89,10.94,1.59-10.83c5.65-38.88,11-77.83,15.5-116.86,2.13-19.52,4.26-39.09,4.29-58.88.91-19.16-5.42-37.76-12.42-55.06,16.5,4.88,29.27,18.1,43.7,27.77l.15.09.09,0a135.54,135.54,0,0,0,21.67,7.27c7.49,1.51,15.14,3.22,23.22.36l3.16-1.16-3.4-1.09c-9-2.87-17.92-6.3-25-12.33-6.5-6.6-14.13-12.95-18.74-20.94-9.32-16.38-16-34.39-22.51-52.19-6.56-17.51-10.44-37.38-24.07-51.81-11.59-13.43-25.76-24.25-41.07-33,13.84.06,27.76.89,41.22,3.87a99.86,99.86,0,0,1,21.73,7.13c6.75,3.22,13.58,7.51,17.54,13.45l3.19,4.74-.85-5.51a96.66,96.66,0,0,0-22-47.37c-11.44-13.39-25.87-24-41.37-32.17-30.63-16.09-64.55-24.78-98.79-28.69,4.26-13.57,13.66-25.4,23.06-36.16l2.58-3-3.79.92c-14.84,2.42-30.72.5-45.86-1.66-7.69-1.15-15.44-2.19-23.22-2.57-1.45,0-2.93,0-4.4,0l-3.32,0c-5.29,0-10.61.5-15.17,4.05"/><g class="cls-17"><rect class="cls-1" x="1379.73" y="373.78" width="284.3" height="595.92"/></g><path class="cls-1" d="M1258.94,245.5c13.36,25,26.34,50.09,38.2,75.79,5.68,12.84,11.8,25.85,14.76,39.39,2.22,6.71-3.55,12.75-10.47,13.34-6.8,1-13.93.11-20.82-1.13l-.09.21c6.72,2.28,13.93,3.58,21.18,2.69,7.15,0,15.55-7.42,12.53-15.52-3.37-14.14-9.73-26.82-15.64-39.69-12.27-25.52-25.7-50.45-39.51-75.14Z"/><g class="cls-18"><rect class="cls-1" x="1258.94" y="245.44" width="58.31" height="131.24"/></g><path class="cls-1" d="M1194.5,257.86c12.33,24.6,24.25,49.47,35,74.82,5.12,12.65,10.83,25.52,13.1,38.77,1.19,6.56-4.49,11.85-11.29,12.38-6.66.86-13.58,0-20.32-1.15a47.29,47.29,0,0,0,20.55,2.84c6.92,0,15.17-6.18,13.43-14.37-2.69-13.93-8.58-26.41-14-39.12-11.18-25.23-23.57-49.83-36.34-74.26Z"/><g class="cls-19"><rect class="cls-1" x="1194.5" y="257.77" width="52.19" height="128.49"/></g><path class="cls-1" d="M1256.63,241l-.83.2.09.95,10,117.34-66.71-103.86-.26.15,67.54,108.91,2.57,4.08-.39-4.79-10.35-120.59c9.79,2.9,18.4,13.63,25.88,22a359,359,0,0,1,21.91,29.34c13.81,20.19,26.47,41.16,38.77,62.3l.06,0c-12-21.35-24.28-42.52-37.79-63-6.72-10.24-13.9-20.2-21.62-29.78a151.1,151.1,0,0,0-12.39-13.69c-4.76-3.91-8.63-9.05-16.35-9.64Z"/><g class="cls-20"><rect class="cls-1" x="1198.91" y="240.92" width="145.99" height="127.81"/></g><path class="cls-1" d="M447.12,424.35C433.34,435.53,424,452.5,422.9,470.51c-1.1,17.8,5.71,36.58,19.81,48,14,11.62,33,14.46,50.09,11.74-17.24.92-35.22-2.93-48.23-14S426,487.45,427.13,470.74c.56-16.85,8.87-33.12,21.79-44.23s29.87-17.45,47.26-18.31c-1.1-.06-2.16-.06-3.26-.06-16.38,0-33,5.47-45.8,16.21"/><g class="cls-21"><rect class="cls-1" x="421.8" y="408.14" width="74.37" height="124.79"/></g><path class="cls-1" d="M490.91,408.2a195.3,195.3,0,0,1,42.11,7c13.6,4,26.64,10,37.79,18.45a79.52,79.52,0,0,1,26.5,32c6.39,12.68,8.13,27,9.88,41.19h.11c0-14.22-.85-29.13-7.27-42.41-5.68-13.3-14.67-25.69-26.67-34.21-22-15.11-48.59-22.3-74.76-22.3-2.57,0-5.12.06-7.69.21"/><g class="cls-22"><rect class="cls-1" x="490.91" y="408" width="116.39" height="98.91"/></g><path class="cls-1" d="M1455.61,1145.06h0m-7.57-.83,0,.18,0,.2c-3.78,75.35-7.8,150.7-9,226.19,7.37-75,11.92-150.22,16.62-225.39,9.79-61.8,19.82-123.58,27-185.85l-.59-.06c-13.13,61.27-23.45,123-34,184.73"/><g class="cls-23"><rect class="cls-1" x="1438.99" y="959.5" width="43.65" height="411.31"/></g><path class="cls-1" d="M1384.85,584.89c12,14.28,17.3,33.06,21.94,51,4.32,18.22,6.8,37,3.58,55.51a367.66,367.66,0,0,1-12.15,51.72q-7.15-17.79-15.85-34.87c-6.45-12.15-13.22-24.36-22.8-34.54-11.8-8-16.5-21.56-18.63-35a177.88,177.88,0,0,1-1.48-41.07,180.1,180.1,0,0,0,.38,41.25c1.69,13.42,6.92,28,18.6,36,9.26,10,16,22.14,22.27,34.3,6.15,12.24,11.71,24.81,16.62,37.61l1.09,2.87.95-2.93c5.71-17.95,10.7-36.19,13.31-54.94,3.16-18.81.44-38.06-4.08-56.27-4.91-18.07-10.3-36.79-22.77-51.46-13.81-12.8-22.83-29.75-31.2-46.48,8,16.88,16.35,34.33,30.22,47.4"/><g class="cls-24"><rect class="cls-1" x="1337.98" y="537.49" width="77.86" height="212.08"/></g><path class="cls-1" d="M1470.19,567.44c5.92,8.31,13.55,14.94,21.38,21s15.73,12.27,24.25,17.33c17,10.2,34,20.52,52.08,28.59l.41-.74c-16.38-11.09-33.39-21.11-49.41-32.5-16.33-10.94-32.8-21.85-46.76-35.3Z"/><g class="cls-25"><rect class="cls-1" x="1470.19" y="565.85" width="98.12" height="68.55"/></g><path class="cls-1" d="M1502,501.38c8,1.48,16.32,2.78,24.57.56-15.73-5-30.69-8.46-47.31-9.76,7,4.68,14.85,7.16,22.74,9.2"/><g class="cls-26"><rect class="cls-1" x="1479.27" y="492.18" width="47.31" height="11.98"/></g><path class="cls-1" d="M1210.65,878.35a176,176,0,0,0,12.53,90.37c4.53,14.79,13.58,27.45,20.82,40.87,8.37,12.81,18.81,24.16,28.07,36.2-18.25-24.34-36.17-49.36-46.17-78.1-11.68-28.06-14.63-59.06-11.35-88.92s13.57-59.11,28.65-85.4c15.32-26.14,34.07-50.57,56.4-71.33-45.9,39.63-81.27,94.86-88.95,156.31"/><g class="cls-27"><rect class="cls-1" x="1206.86" y="722.04" width="92.74" height="323.74"/></g><rect class="cls-1" x="1126.81" y="533.71" width="0.01" height="0.01"/></svg>