<svg id="Layer_1" data-name="Layer 1" xmlns="http://www.w3.org/2000/svg" viewBox="0 0 515.91 528.88">
   <defs>
      <style>.cls-1{fill:none;}.cls-2,.cls-3{font-size:65.12px;fill:#6474e4;font-family:BPGNinoMtavruli, BPG Nino Mtavruli;}.cls-2{stroke:#6474e4;stroke-width:1.5px;}.cls-2,.cls-8{stroke-miterlimit:10;}.cls-4{fill:#f3a3a3;}.cls-5{fill:#fcecec;}.cls-6{fill:#ec9595;}.cls-7{fill:#e76767;}.cls-8{fill:#f9d1d1;stroke:#e76767;stroke-width:4px;}</style>
   </defs>
   <title>Artboard 34</title>
   <path class="cls-1" d="M258.33,306.36a50.77,50.77,0,0,1-49.67-40.55H146.14v63.26a70.79,70.79,0,0,1,19.55,39.47H351a70.84,70.84,0,0,1,19.54-39.47V265.81H308A50.77,50.77,0,0,1,258.33,306.36Z"/>
   <path class="cls-1" d="M258.33,306.36a50.77,50.77,0,0,1-49.67-40.55H146.14v63.26a70.79,70.79,0,0,1,19.55,39.47H351a70.84,70.84,0,0,1,19.54-39.47V265.81H308A50.77,50.77,0,0,1,258.33,306.36Z"/>

   <path class="cls-4" d="M365.49,212.33l-210.8-2.88q-24.54-71.31-49.1-142.63H411.08Q388.28,139.57,365.49,212.33Z"/>
   <rect class="cls-5" x="105.59" y="20.24" width="305.49" height="40.36"/>
   <path class="cls-6" d="M405.31,107.24,107.07,86.08v-15H409.59Q407.45,89.19,405.31,107.24Z"/>
   <path class="cls-1" d="M258.33,286.08a30.45,30.45,0,0,0,30.42-30.41V225.26H227.92v30.41A30.44,30.44,0,0,0,258.33,286.08Z"/>
   <path class="cls-7" d="M366.93,0H149.73A64.16,64.16,0,0,0,85.65,64.08l.95,4.61,48.89,147.14,19.2-6.38L109.75,74.2H406.91L362,209.45l19.2,6.38,48.9-147.16.95-4.59A64.16,64.16,0,0,0,366.93,0ZM107.07,54a43.93,43.93,0,0,1,42.66-33.72h217.2A43.91,43.91,0,0,1,409.59,54Z"/>
   <path class="cls-1" d="M258.33,286.08a30.45,30.45,0,0,0,30.42-30.41V225.26H227.92v30.41A30.44,30.44,0,0,0,258.33,286.08Z"/>
   <path class="cls-1" d="M258.33,286.08a30.45,30.45,0,0,0,30.42-30.41V225.26H227.92v30.41A30.44,30.44,0,0,0,258.33,286.08Z"/>
   <path class="cls-8" d="M407,158.42A24.52,24.52,0,0,0,375.53,153a74,74,0,0,0-25.89-31.34,24.49,24.49,0,1,0-42.24-11.17,48.79,48.79,0,0,0-25.6,10.8A49.5,49.5,0,0,0,265,149.91c-10.77-6-38-18.55-64.62-9l-.09,0c-.53.21-13,5.19-15.67,15.3a15.16,15.16,0,0,0-.14,7.09c-7.32-1.41-15,.58-21.85,5.73-7.15,5.38-12.56,13.62-15.21,23.2-3.68,13.3-1.38,27.12,6,36.07a25.31,25.31,0,0,0,12.74,8.42,24.4,24.4,0,0,0,9.31.73A83.49,83.49,0,0,0,193.61,277h0A83.64,83.64,0,0,0,229,302.23a24.68,24.68,0,0,0-1,9.28,25.33,25.33,0,0,0,5.87,14.1h0c7.4,8.95,20.54,13.82,34.29,12.7,9.91-.8,19-4.55,25.65-10.56,6.35-5.75,9.76-12.93,9.75-20.4a15.16,15.16,0,0,0,7,1.22c10.43-.68,17.68-12,18-12.51a.41.41,0,0,0,.05-.09c14.4-24.38,7.22-53.44,3.32-65.16a49.46,49.46,0,0,0,31.29-11.13,48.81,48.81,0,0,0,15.43-23.1A24.49,24.49,0,0,0,407,158.42Z"/>
   <path class="cls-7" d="M320.56,107.87a3.58,3.58,0,0,1-.82-2.66,11.45,11.45,0,1,1,22.79,2.16,3.64,3.64,0,0,1-7.25-.69,4.16,4.16,0,1,0-8.29-.78,3.64,3.64,0,0,1-6.43,2Z"/>
   <path class="cls-7" d="M383.59,184.14a3.64,3.64,0,0,1,3.15-5.94,4.16,4.16,0,0,0,3.05-.94,4.17,4.17,0,0,0,.56-5.86,4.16,4.16,0,0,0-2.82-1.5,3.64,3.64,0,1,1,.69-7.25,11.45,11.45,0,1,1-2.17,22.8A3.66,3.66,0,0,1,383.59,184.14Z"/>
   <path class="cls-7" d="M320.62,147.35a3.64,3.64,0,0,1,.49-5.13,3.65,3.65,0,0,1,5.12.49,3.65,3.65,0,0,1-.48,5.13,3.73,3.73,0,0,1-2.67.82A3.67,3.67,0,0,1,320.62,147.35Z"/>
   <path class="cls-7" d="M344.83,176.65a3.64,3.64,0,1,1,5.61-4.64,3.64,3.64,0,0,1-5.61,4.64Z"/>
   <path class="cls-7" d="M273.6,253.35c5.86-6.57,7.17-15.86,3.26-23.12-3.05-5.66-8.61-9-15.38-9.35.89-6.73-1.31-12.81-6.29-16.87-6.4-5.21-15.77-5.67-23.32-1.15-6,3.59-19.24,15.71-12.5,50.55a3.63,3.63,0,0,0,.77,1.63h0a3.47,3.47,0,0,0,1.45,1.06C254.54,269.29,268.94,258.57,273.6,253.35Zm-47.44-3.29c-3.49-20.06,0-35.29,9.45-40.95,4.93-3,10.95-2.73,15,.55,3.78,3.08,4.8,8.13,2.8,13.86h0a3.59,3.59,0,0,0-.17,1.73,3.63,3.63,0,0,0,4.13,3.07c6-.88,10.77,1.07,13.08,5.36,2.47,4.58,1.55,10.53-2.28,14.82C260.82,256.72,245.21,257.27,226.16,250.06Z"/>
   <path class="cls-7" d="M185.15,198.34a13.91,13.91,0,0,0-7.08-4.64c-8.13-2.25-16.82,3.38-19.36,12.56a17.75,17.75,0,0,0,3.06,16.1,14,14,0,0,0,7.08,4.64,14.39,14.39,0,0,0,12-2.14,18.38,18.38,0,0,0,7.34-10.42A17.75,17.75,0,0,0,185.15,198.34Zm-8.35,20.48a7.21,7.21,0,0,1-6,1.16,6.73,6.73,0,0,1-3.41-2.26,10.64,10.64,0,0,1-1.65-9.51c1.47-5.31,6.14-8.67,10.4-7.49a6.57,6.57,0,0,1,3.41,2.26,10.64,10.64,0,0,1,1.65,9.51A11.13,11.13,0,0,1,176.8,218.82Z"/>
   <path class="cls-7" d="M179.46,188.69a3.64,3.64,0,0,0,4.48-2.54l2.16-7.78a3.64,3.64,0,1,0-7-1.94l-2.15,7.77a3.62,3.62,0,0,0,.7,3.3A3.71,3.71,0,0,0,179.46,188.69Z"/>
   <path class="cls-7" d="M272.46,307.91a14,14,0,0,0-3.22-7.83,17.77,17.77,0,0,0-15.24-6,18.4,18.4,0,0,0-11.62,5.24A14.42,14.42,0,0,0,238,310.7a14,14,0,0,0,3.22,7.83h0a17.76,17.76,0,0,0,15.23,6C266,323.79,273.14,316.32,272.46,307.91Zm-16.57,9.39a10.68,10.68,0,0,1-9-3.41,6.7,6.7,0,0,1-1.57-3.78,7.2,7.2,0,0,1,2.27-5.68,11.1,11.1,0,0,1,7-3.12,10.65,10.65,0,0,1,9,3.41,6.7,6.7,0,0,1,1.57,3.78C265.56,312.91,261.38,316.86,255.89,317.3Z"/>
   <path class="cls-7" d="M293.75,327.75c6.35-5.75,9.76-12.93,9.75-20.4a15.16,15.16,0,0,0,7,1.22c10.43-.68,17.68-12,18-12.51a.41.41,0,0,0,.05-.09c14.4-24.38,7.22-53.44,3.32-65.16a49.46,49.46,0,0,0,31.29-11.13,48.81,48.81,0,0,0,15.43-23.1,24.49,24.49,0,1,0-3-43.59,74,74,0,0,0-25.89-31.34,24.49,24.49,0,1,0-42.24-11.17,48.79,48.79,0,0,0-25.6,10.8A49.5,49.5,0,0,0,265,149.91c-10.77-6-38-18.55-64.62-9l-.09,0c-.53.21-13,5.19-15.67,15.3a15.16,15.16,0,0,0-.14,7.09c-7.32-1.41-15,.58-21.85,5.73-7.15,5.38-12.56,13.62-15.21,23.2-3.68,13.3-1.38,27.12,6,36.07a25.31,25.31,0,0,0,12.74,8.42,24.4,24.4,0,0,0,9.31.73A83.49,83.49,0,0,0,193.61,277h0A83.64,83.64,0,0,0,229,302.23a24.68,24.68,0,0,0-1,9.28,25.33,25.33,0,0,0,5.87,14.1h0c7.4,8.95,20.54,13.82,34.29,12.7C278,337.51,287.12,333.76,293.75,327.75Zm18.62-210.34a3.61,3.61,0,0,0,3-1.7,3.65,3.65,0,0,0,.26-3.41,17.2,17.2,0,1,1,26.7,6.33c-.26.22-.52.42-.79.62a3.63,3.63,0,0,0,.32,6.07A66.52,66.52,0,0,1,370.46,160a3.63,3.63,0,0,0,5.9,1.46l.76-.66a17.21,17.21,0,1,1,1.19,27.42,3.65,3.65,0,0,0-5.63,2.21,42.13,42.13,0,0,1-14.2,23.68c-20.23,16.72-52.86,10.78-72.72-13.26s-19.56-57.19.68-73.92A42.19,42.19,0,0,1,312.37,117.41ZM185.54,225.63c-5.59,4.21-11.79,5.66-17.45,4.09a17.78,17.78,0,0,1-9.06-6c-5.91-7.14-7.68-18.44-4.62-29.48A37.22,37.22,0,0,1,164.49,177l0,.25,1.21,8a3.72,3.72,0,0,0,.79,1.77,3.64,3.64,0,0,0,6.41-2.86l-1.21-8a3.63,3.63,0,0,0-2.33-2.86c4.93-2.94,10.18-3.83,15-2.48a17.8,17.8,0,0,1,9.07,6,22.89,22.89,0,0,1,2.55,3.82,3.63,3.63,0,0,0-3.47,1.26l-5.15,6.21a3.64,3.64,0,0,0,0,4.64,3.17,3.17,0,0,0,.48.49,3.65,3.65,0,0,0,5.13-.48l5.15-6.22.16-.21a37.47,37.47,0,0,1-.23,20C195.88,214.34,191.42,221.21,185.54,225.63Zm52.08,63.54a32.23,32.23,0,0,0-5.53,6.45,77.32,77.32,0,0,1-49.55-60,32.72,32.72,0,0,0,7.38-4.21c7.15-5.38,12.55-13.62,15.21-23.2a45.61,45.61,0,0,0,.94-20.75c5.53-3.52,22.38-12.81,41.69-9.75a3.64,3.64,0,1,0,1.14-7.19c-20.16-3.2-37.39,5.14-45,9.7a31.61,31.61,0,0,0-4.81-8.08,27,27,0,0,0-4.19-4.09c-2.94-3.66-4-7-3.28-10,1.39-5.37,8.54-9.27,11.23-10.34,26-9.29,53.94,5.73,61.07,10-1,16,4.35,33.34,16.22,47.7s27.88,22.91,43.79,24.91c2.87,7.8,12.39,38-1.67,61.85-.36.55-5.81,8.67-12.26,9.09-3.08.2-6.19-1.52-9.23-5.1a26.8,26.8,0,0,0-3.22-4.89,31.92,31.92,0,0,0-7-6.24c5.9-6.61,17.34-22,18-42.36a3.64,3.64,0,1,0-7.28-.24c-.63,19.55-12.93,34.34-17.43,39.11a45.55,45.55,0,0,0-20.55-3C253.36,279.4,244.25,283.16,237.62,289.17Zm29.9,41.89c-11.43.92-22.19-2.94-28.09-10.09h0a18,18,0,0,1-4.22-10c-.47-5.86,2.12-11.67,7.31-16.37,5.45-4.94,13-8,21.35-8.7a37.39,37.39,0,0,1,19.66,3.54l-.25.11-7.07,3.89a3.65,3.65,0,0,0-1.44,4.94,4.07,4.07,0,0,0,.39.57,3.64,3.64,0,0,0,4.56.87l7.07-3.88a3.65,3.65,0,0,0,1.89-3.17,23.17,23.17,0,0,1,3.27,3.22,17.85,17.85,0,0,1,4.23,10c.4,5-1.46,10-5.27,14.3a3.64,3.64,0,0,0-2.37-2.83l-7.61-2.69a3.64,3.64,0,0,0-4,5.75,3.7,3.7,0,0,0,1.59,1.11l7.6,2.7.24.07A37.28,37.28,0,0,1,267.52,331.06Z"/>
   <path class="cls-7" d="M293,306.25a3.66,3.66,0,0,0-3.93-3.34l-8,.66a3.63,3.63,0,0,0-3.33,3.92,3.58,3.58,0,0,0,.82,2,3.65,3.65,0,0,0,3.1,1.32l8-.66A3.64,3.64,0,0,0,293,306.25Z"/>
   <path class="cls-7" d="M330.64,163.72c-11.05-13.37-29.49-16.44-41.11-6.84s-12.07,28.29-1,41.66S318,215,329.61,205.38,341.69,177.09,330.64,163.72ZM325,168.36h0c2.8,3.4,3.12,8,.68,10s-6.87.84-9.68-2.56-3.12-8-.68-10S322.21,165,325,168.36Zm-30.9,25.54c-8.49-10.27-8.47-24.36.05-31.4,4.8-4,11.29-4.87,17.56-3.05a10.15,10.15,0,0,0-1,.74c-4.76,3.93-5.55,11.1-2.32,17.2l-4.05,3.34a3.38,3.38,0,0,1-4.3-5.21,3.64,3.64,0,1,0-4.64-5.61,10.63,10.63,0,0,0,5.09,18.72,10.65,10.65,0,0,0,17.44,8.54,3.64,3.64,0,0,0-4.64-5.62,3.38,3.38,0,1,1-4.31-5.21l4-3.34c5.37,4.32,12.57,4.89,17.32,1a10.88,10.88,0,0,0,.93-.86c.6,6.5-1.51,12.7-6.31,16.67C316.45,206.81,302.61,204.18,294.12,193.9Z"/>
   <rect class="cls-5" x="101.2" y="220.58" width="314.26" height="154.24"/>
   <path class="cls-7" d="M108.68,206.46l-3.09.27a30.45,30.45,0,0,0-20.28,28.66v123a30.45,30.45,0,0,0,30.42,30.41H400.94a30.44,30.44,0,0,0,30.41-30.41v-123a30.44,30.44,0,0,0-20.27-28.66v-.27Zm119.24,18.8h60.83v30.41a30.42,30.42,0,0,1-60.83,0ZM105.59,235.39a10.14,10.14,0,0,1,10.14-10.13h91.91v20.27H136a10.14,10.14,0,0,0-10.14,10.14v58.9a70.11,70.11,0,0,0-20.27-6.13Zm10.14,133.15a10.15,10.15,0,0,1-10.14-10.14V329a50.84,50.84,0,0,1,39.53,39.53Zm254.79-39.47A70.84,70.84,0,0,0,351,368.54H165.69a70.79,70.79,0,0,0-19.55-39.47V265.81h62.52a50.7,50.7,0,0,0,99.34,0h62.52Zm40.56,29.33a10.15,10.15,0,0,1-10.14,10.14h-29.4A50.85,50.85,0,0,1,411.08,329Zm0-50a70.27,70.27,0,0,0-20.28,6.13v-58.9a10.14,10.14,0,0,0-10.14-10.14H309V225.26h91.92a10.14,10.14,0,0,1,10.14,10.13Z"/>
   <circle class="cls-4" cx="258.33" cy="251.72" r="14.09"/>
</svg>