<svg xmlns="http://www.w3.org/2000/svg" xmlns:xlink="http://www.w3.org/1999/xlink" width="837" height="891" viewBox="0 0 837 891">
  <defs>
    <linearGradient id="linear-gradient" x1="-0.304" y1="0.487" x2="7.059" y2="0.584" gradientUnits="objectBoundingBox">
      <stop offset="0" stop-color="#d59d96"/>
      <stop offset="0.193" stop-color="#e7c6b0"/>
      <stop offset="0.344" stop-color="#e0bda5"/>
      <stop offset="0.535" stop-color="#d49b96"/>
      <stop offset="0.633" stop-color="#d7a09a"/>
      <stop offset="0.761" stop-color="#e1b1a7"/>
      <stop offset="0.905" stop-color="#f1ccbc"/>
      <stop offset="1" stop-color="#ffe2cd"/>
    </linearGradient>
    <linearGradient id="linear-gradient-2" x1="-1.191" y1="0.473" x2="4.903" y2="0.57" xlink:href="#linear-gradient"/>
    <linearGradient id="linear-gradient-3" x1="-3.113" y1="0.46" x2="5.126" y2="0.557" xlink:href="#linear-gradient"/>
    <linearGradient id="linear-gradient-4" x1="-3.113" y1="0.446" x2="2.933" y2="0.543" xlink:href="#linear-gradient"/>
    <linearGradient id="linear-gradient-5" x1="-4.181" y1="0.424" x2="1.827" y2="0.521" xlink:href="#linear-gradient"/>
    <linearGradient id="linear-gradient-6" x1="-11.351" y1="0.411" x2="1.577" y2="0.508" xlink:href="#linear-gradient"/>
    <linearGradient id="linear-gradient-7" x1="-0.329" y1="0.487" x2="6.268" y2="0.584" xlink:href="#linear-gradient"/>
    <linearGradient id="linear-gradient-8" x1="-2.067" y1="0.466" x2="7.604" y2="0.599" xlink:href="#linear-gradient"/>
    <linearGradient id="linear-gradient-9" x1="-2.813" y1="0.449" x2="5.913" y2="0.583" xlink:href="#linear-gradient"/>
    <linearGradient id="linear-gradient-10" x1="-3.843" y1="0.433" x2="4.668" y2="0.567" xlink:href="#linear-gradient"/>
    <linearGradient id="linear-gradient-11" x1="-8.125" y1="0.427" x2="5.838" y2="0.543" xlink:href="#linear-gradient"/>
    <linearGradient id="linear-gradient-12" x1="-10.986" y1="0.434" x2="5.567" y2="0.531" xlink:href="#linear-gradient"/>
    <linearGradient id="linear-gradient-13" x1="-6.704" y1="0.394" x2="2.482" y2="0.528" xlink:href="#linear-gradient"/>
    <linearGradient id="linear-gradient-14" x1="-7.478" y1="0.377" x2="1.249" y2="0.511" xlink:href="#linear-gradient"/>
  </defs>
  <g id="Group_24" data-name="Group 24" transform="translate(-160 -154)">
    <text id="An_alchemy" data-name="An alchemy" transform="translate(162 686)" fill="#e6e6e6" font-size="129" font-family="Giaza"><tspan x="0" y="0">An alchemy</tspan></text>
    <text id="IDEAS" transform="translate(160 973)" fill="#e6e6e6" font-size="289" font-family="Giaza"><tspan x="0" y="0">IDEAS</tspan></text>
    <text id="for" transform="translate(918 653)" fill="#fff" font-size="52" font-family="Giaza"><tspan x="-35.308" y="0">for</tspan></text>
    <text id="your" transform="translate(918 694)" fill="#d49c97" font-size="52" font-family="Giaza"><tspan x="-53.118" y="0">your</tspan></text>
    <g id="Group_20" data-name="Group 20" transform="translate(-260.507 227.764)">
      <path id="Path_336" data-name="Path 336" d="M482.416,87.556c-32.471,0-59.909-17.292-59.909-39.869a24.652,24.652,0,1,1,49.3,0c0,17.292-15.2,19.81-13.584,28.571,1.153,5.764,9.223,9.914,24.19,9.914,11.759,0,23.287-9.453,23.287-21.9,0-34.8-83.2-57.142-83.2-100.469,0-27.649,33.644-37.563,58.526-37.563,14.737,0,24.421,3.228,37.333,3.228,5.073,0,9.453-.692,12.451-3.228H532.2v43.558h-1.383c-3.69-19.348-20.521-41.944-44.25-41.944-11.759,0-22.346,5.534-23.268,19.368-2.536,35.949,75.357,52.761,79.276,95.858C544.631,67.957,515.618,87.556,482.416,87.556Z" transform="translate(0 0)" fill="url(#linear-gradient)"/>
      <path id="Path_337" data-name="Path 337" d="M574.79,6.9c0,44.48-32.471,80.66-72.57,80.66S429.61,51.376,429.61,6.9c0-44.461,32.51-80.66,72.609-80.66S574.79-37.565,574.79,6.9Zm-42.846,0c0-52.781-10.375-79.257-29.724-79.257C482.852-72.361,472.5-45.885,472.5,6.9s10.356,79.276,29.723,79.276C521.568,86.172,531.944,59.676,531.944,6.9Z" transform="translate(129.373 0)" fill="url(#linear-gradient-2)"/>
      <path id="Path_338" data-name="Path 338" d="M545.4,46.765V87.556H438.011V86.172a13.858,13.858,0,0,0,13.815-13.834V-58.547a13.842,13.842,0,0,0-13.815-13.815v-1.4h68.44v1.4a13.892,13.892,0,0,0-14.044,13.815V86.172h.691a52.433,52.433,0,0,0,50.917-39.408Z" transform="translate(282.387 0)" fill="url(#linear-gradient-3)"/>
      <path id="Path_339" data-name="Path 339" d="M590.655,86.172v1.383H519.679V86.172c7.628,0,13.834-7.839,11.3-15.448L524.29,51.376H480.06l-1.614,4.15a26.2,26.2,0,0,0-1.153,7.589,23.012,23.012,0,0,0,23.268,23.057v1.383H444.322V86.172c13.393-1.845,26.266-13.373,31.108-26.285l48.4-133.652c27.648,79.507,30.876,89.421,51.858,149.33A15.73,15.73,0,0,0,590.655,86.172Zm-66.825-36.18c-7.379-21.193-10.837-30.877-21.193-61.062L480.521,49.993Z" transform="translate(397.336 0)" fill="url(#linear-gradient-4)"/>
      <path id="Path_340" data-name="Path 340" d="M572.961-44.713V72.338a13.875,13.875,0,0,0,13.834,13.834h.461v1.383H532.861L481.234-61.313V58.524c0,14.968,11.99,27.649,26.976,27.649v1.383H452.662V86.172c14.987,0,27.208-12.681,27.208-27.649V-58.547a13.858,13.858,0,0,0-13.834-13.815h-.692v-1.4h54.625L571.6,75.105V-44.713c0-14.987-12.22-27.649-27.206-27.649v-1.4h55.527v1.4C584.95-72.361,572.961-59.7,572.961-44.713Z" transform="translate(549.239 0)" fill="url(#linear-gradient-5)"/>
      <path id="Path_341" data-name="Path 341" d="M515.445-58.547V72.338A13.909,13.909,0,0,0,529.49,86.172v1.383H461.05V86.172a13.874,13.874,0,0,0,13.834-13.834V-58.547A13.858,13.858,0,0,0,461.05-72.361v-1.4h68.44v1.4A13.893,13.893,0,0,0,515.445-58.547Z" transform="translate(702.017 0)" fill="url(#linear-gradient-6)"/>
    </g>
    <g id="Group_21" data-name="Group 21" transform="translate(-260.387 410.361)">
      <path id="Path_342" data-name="Path 342" d="M466.756,18.59c0,41.833,24.006,75.906,53.521,75.906,12.566,0,24.9-6.616,34.074-17.141l1.124.686c-12.813,22.633-35.445,37.505-61.052,37.505-39.793,0-72.036-35.9-72.036-80.044,0-44.121,32.243-80.044,72.036-80.044,32.471,0,61.052,24.711,61.052,44.6a24.506,24.506,0,0,1-24.462,24.482A24.494,24.494,0,0,1,506.549.057c0-16.226,13.481-18.972,13.481-30.183,0-10.964-17.847-13.023-25.607-13.023C481.171-43.149,466.756-15.254,466.756,18.59Z" transform="translate(0)" fill="url(#linear-gradient-7)"/>
      <path id="Path_343" data-name="Path 343" d="M520.708-24.648A17.853,17.853,0,0,1,502.862-6.82a17.807,17.807,0,0,1-17.618-17.828c0-2.975.706-4.119.706-5.949,0-2.288-1.392-3.432-3.679-3.432-2.041,0-5.015.915-8.676,2.746v93.3a11.525,11.525,0,0,0,9.362,11.212V74.6H429.911V73.224a11.523,11.523,0,0,0,9.381-11.212v-81.4A11.338,11.338,0,0,0,429.911-30.6v-1.373l39.107-5.72h.686a3.856,3.856,0,0,1,3.89,3.89v1.144c8.237-4.347,20.363-10.067,29.268-9.591C512.7-41.808,520.708-34.257,520.708-24.648Z" transform="translate(135.938 40.95)" fill="url(#linear-gradient-8)"/>
      <path id="Path_344" data-name="Path 344" d="M530.041,45.669l1.144.686c-9.152,16.455-25.607,27.209-44.14,27.209-28.791,0-52.13-25.836-52.13-57.869,0-31.995,23.339-57.85,52.13-57.85,24.94,0,43.454,19.448,48.487,45.284H469.217c0,30.183,16.7,54.646,37.276,54.646C515.416,57.777,523.634,53.22,530.041,45.669ZM469.217,1.758h35.217c-1.373-28.353-7.322-42.539-17.39-42.539C471.276-40.781,469.446-6.022,469.217,1.758Z" transform="translate(226.345 43.126)" fill="url(#linear-gradient-9)"/>
      <path id="Path_345" data-name="Path 345" d="M544.022,66.523V67.9l-39.316,5.72h-.477a4.085,4.085,0,0,1-4.1-4.118v-5.72c-5.491,4.119-14.873,9.839-27.686,9.839-14.4,0-27.209-8.237-30.641-21.031-3.642-13.042,3.661-26.541,16.245-34.3C477.707,5.928,531.208-1.851,531.208-19.45c0-6.178-6.158-12.813-13.481-16.474a52.182,52.182,0,0,0-31.1-4.118c-8.237,1.144-13.042,3.89-13.042,8.695,0,8.466,9.839,11.44,9.839,21.965a17.66,17.66,0,0,1-17.847,17.6,17.461,17.461,0,0,1-17.6-17.6c0-17.847,22.175-29.745,38.42-32.033,11.9-1.83,23.338-.229,32.014,4.347,8.695,4.347,16.226,12.127,16.226,23.319v69.08A11.518,11.518,0,0,0,544.022,66.523ZM500.129,4.555V3.411c-9.4,4.347-23.339,11.669-24.693,30.87-.686,10.983,2.041,19.448,6.846,24.692,5.034,5.491,12.813,6.864,17.847,3.2Z" transform="translate(333.86 43.074)" fill="url(#linear-gradient-10)"/>
      <path id="Path_346" data-name="Path 346" d="M509.762,79.45v1.6c-5.472,4.119-15.082,9.839-27.9,9.839A25.576,25.576,0,0,1,456.26,65.284v-86.45h-9.381V-22.54a53.608,53.608,0,0,0,42.309-20.573h1.373V-22.54h14.853v1.373H490.562V69.154A12.288,12.288,0,0,0,502.9,81.51,12.107,12.107,0,0,0,509.762,79.45Z" transform="translate(442.5 25.8)" fill="url(#linear-gradient-11)"/>
      <path id="Path_347" data-name="Path 347" d="M460.04,21.565a11.32,11.32,0,0,0-9.381-11.211V8.98l39.107-5.72h.686a3.724,3.724,0,0,1,3.89,3.89v95.812a11.524,11.524,0,0,0,9.362,11.212v1.373H450.659v-1.373a11.5,11.5,0,0,0,9.381-11.212ZM477.2-9.1a17.609,17.609,0,0,1-17.618-17.6A17.676,17.676,0,0,1,477.2-44.541a17.866,17.866,0,0,1,17.828,17.847A17.8,17.8,0,0,1,477.2-9.1Z" transform="translate(510.794)" fill="url(#linear-gradient-12)"/>
      <path id="Path_348" data-name="Path 348" d="M549.267-14.054C549.267,32.6,519.75,74,489.567,74c-15.54,0-26.5-10.983-26.5-32.243V-21.128a11.338,11.338,0,0,0-9.38-11.211v-1.373l39.087-5.72h.706a3.724,3.724,0,0,1,3.89,3.89V39.01c0,11.65-11.9,14.643-11.9,23.109,0,5.015,5.015,8.676,13.251,8.218,4.577-.458,10.067-2.974,13.729-5.72,6.177-4.347,11.9-10.506,17.141-17.828,8.466-12.127,14.186-26.98,16.7-42.31,1.372-7.551.685-12.813-5.492-12.813-3.89,0-6.159,1.6-10.277,1.6a17.794,17.794,0,0,1-17.846-17.6,17.858,17.858,0,0,1,17.846-17.847,17.513,17.513,0,0,1,15.769,10.067C549.037-26.619,549.267-19.526,549.267-14.054Z" transform="translate(565.429 42.693)" fill="url(#linear-gradient-13)"/>
      <path id="Path_349" data-name="Path 349" d="M554.666,45.669l1.144.686c-9.152,16.455-25.608,27.209-44.14,27.209-28.792,0-52.13-25.836-52.13-57.869,0-31.995,23.339-57.85,52.13-57.85,24.939,0,43.453,19.448,48.487,45.284H493.841c0,30.183,16.7,54.646,37.276,54.646C540.04,57.777,548.258,53.22,554.666,45.669ZM493.841,1.758h35.217c-1.372-28.353-7.322-42.539-17.389-42.539C495.9-40.781,494.07-6.022,493.841,1.758Z" transform="translate(671.23 43.126)" fill="url(#linear-gradient-14)"/>
    </g>
  </g>
</svg>
