<svg xmlns="http://www.w3.org/2000/svg" viewBox="0 0 199.28 192.96"><defs><style>.cls-1{fill:#fff;}</style></defs><g id="Layer_2" data-name="Layer 2"><path class="cls-1" d="M180.35,188.17a15.18,15.18,0,0,1,2.54,4.79h-5.48l-.11-.41a16.63,16.63,0,0,0-2.6-4.86C177.24,187.93,180.35,188.17,180.35,188.17Zm-42.42-60.23a27.48,27.48,0,0,1,.33-14.62c2.53-8.48,8.58-14.52,11.17-17.1l.35-.35a18.28,18.28,0,0,0-5.23-.77,18.05,18.05,0,0,0-6.33,1.14h0a20,20,0,0,0-3.07,1.45l0,0-.53.32h0A31.48,31.48,0,0,1,131,99.87a40.72,40.72,0,0,1-31.19.17c-1-.61-2.06-1.18-3.15-1.71-.51-.25-1-.5-1.55-.73a56.61,56.61,0,0,0-23-4.66c-14.78,0-27.78,5.21-35.25,13.07h0a26.19,26.19,0,0,0-4.31,6l-.48-.15a15.82,15.82,0,0,1-2.73-1.22A22,22,0,0,1,26.8,109,24.2,24.2,0,0,1,24.47,107a19.1,19.1,0,0,1-2-2.21,17.08,17.08,0,0,1-2.84-5.12A15.65,15.65,0,0,1,18.74,94,17.5,17.5,0,0,1,20,88.21a21.78,21.78,0,0,1,1.29-2.72,25.32,25.32,0,0,1,1.66-2.55A14.84,14.84,0,0,1,27.12,79a12.25,12.25,0,0,1,5.37-1.66,17.56,17.56,0,0,1,3,0,29.94,29.94,0,0,1,3.06.42l.77.16.81.17c.56.13,1.13.24,1.71.35a28.7,28.7,0,0,0,3.6.48,16.06,16.06,0,0,0,2,0,11.27,11.27,0,0,0,2.09-.35,8.85,8.85,0,0,0,2.06-.87,9.15,9.15,0,0,0,1.77-1.34,11.05,11.05,0,0,0,1.35-1.59,14,14,0,0,0,1-1.72,12.14,12.14,0,0,0,1.21-3.93,10.93,10.93,0,0,0-.3-4.18,8.44,8.44,0,0,0-.31-1l-.2-.48-.05-.12L56,63.18l0,0,0,0,0-.06-.06-.12c-.16-.33-.33-.61-.5-.9l-.26-.42-.28-.41a15.29,15.29,0,0,0-6-5A14.31,14.31,0,0,0,45,55a13.69,13.69,0,0,0-3.89-.08,8.8,8.8,0,0,0-3.8,1.13,9.51,9.51,0,0,0-3,2.75,10.08,10.08,0,0,0-1.57,3.57,9.52,9.52,0,0,0-.25,1.91V65a2.83,2.83,0,0,0,0,.29l0,.3a2.5,2.5,0,0,0,.05.29l0,.3a2.29,2.29,0,0,1,.08.28,6.42,6.42,0,0,0,1,2A7.15,7.15,0,0,0,35.22,70,7.71,7.71,0,0,0,39,71.44,6.94,6.94,0,0,0,41,71.37a6.19,6.19,0,0,0,2-.77,5.91,5.91,0,0,0,1.58-1.4,7.54,7.54,0,0,0,1-1.72,1.55,1.55,0,0,0-2.82-1.3l0,0A2.89,2.89,0,0,1,39.45,68,4.17,4.17,0,0,1,37.53,67a3.52,3.52,0,0,1-.66-.75,2.57,2.57,0,0,1-.32-.79.29.29,0,0,0,0-.09v-.09a.28.28,0,0,1,0-.09v-.48l0-.15a6.19,6.19,0,0,1,1.29-3.16,4.8,4.8,0,0,1,1.65-1.32,3.92,3.92,0,0,1,1.62-.38h.44a1.86,1.86,0,0,0,.42-.05,8.52,8.52,0,0,1,2.31,0,9.54,9.54,0,0,1,2.58.76,10.62,10.62,0,0,1,2.33,1.44,10.42,10.42,0,0,1,1.88,2l.19.28c.07.09.12.19.19.28l.32.56,0,.07,0,0v0h0l.06.12.12.29c.07.2.14.39.19.59a6.13,6.13,0,0,1,.21,1.21,7.34,7.34,0,0,1,0,1.24A7.68,7.68,0,0,1,51.67,71,9,9,0,0,1,51,72.15a7.29,7.29,0,0,1-.81,1,4.33,4.33,0,0,1-1.9,1.11,8.43,8.43,0,0,1-2.59.21,26.3,26.3,0,0,1-3-.4l-1.57-.33-.82-.18-.87-.18a32,32,0,0,0-3.57-.49,21.76,21.76,0,0,0-3.7,0,17.42,17.42,0,0,0-3.75.69,16.59,16.59,0,0,0-3.56,1.56,17.88,17.88,0,0,0-3.06,2.3,22.42,22.42,0,0,0-2.5,2.77,29,29,0,0,0-2,3,24.62,24.62,0,0,0-1.6,3.31,22.64,22.64,0,0,0-1.59,7.26,20.49,20.49,0,0,0,1,7.45,22,22,0,0,0,3.53,6.58,25.91,25.91,0,0,0,2.46,2.76A28.34,28.34,0,0,0,26.9,115a35.26,35.26,0,0,0,3.31,1.66l.51.22a19.72,19.72,0,0,0-.56,4.68,18.47,18.47,0,0,0,.11,2.1.84.84,0,0,0-.11.43c.18,17.41-21.54,30.15-21.54,30.15s-6.84,30.06-6.74,30.07L0,193H26.49a15.23,15.23,0,0,0-2.7-4.87s-6.84-.46-8.9-.75-2-3-2-3c.83-11.79,4.73-21.76,10.15-27a10.18,10.18,0,0,1,3.71-2.82,35.55,35.55,0,0,1,4.36-1.16c13.54-2.93,20.81-6.92,24.66-10.07a16.57,16.57,0,0,0,3.46-3.69c.23-.46.46-.91.71-1.35h0a22.53,22.53,0,0,1,2.21-3.21c4-4.8,10.39-7.58,18.5-5.2a113.48,113.48,0,0,1,20.13,8.41c1,.63,2.07,1.24,3.17,1.8a61,61,0,0,0,25.12,6.35c1,.05,2.09.07,3.15.07,2.07,0,4.11-.09,6.1-.26a65.25,65.25,0,0,0,9-1.41C142.48,139.25,139.32,133.57,137.93,127.94Zm35.89,60.15a15.23,15.23,0,0,1,2.7,4.87H153.59l-2.21-14.59c-1.61-8.75-4.51-24.19-4.81-24.23,4.07-2.87,2.33-9.68,2.33-9.68-25.11-28.28,3.38-47.77,2.87-48.76,20.47,16.06,16.44,32.75,11.65,53.29a73,73,0,0,1-2.1,7.51l-.55,26.75s2.09,3.81,4.15,4.09S173.82,188.09,173.82,188.09Zm18-104.75c-1.42-3.31-2.16-6.93-4-10a15.47,15.47,0,0,0-6.55-5.81l-.27-.48c4.28,0,9,.28,11.65,3.56-.74-4.63-4.29-8.42-8.42-10.65s-8.82-3.14-13.43-4a12.51,12.51,0,0,1,3.09-4.84l-.17,0c.08-.11.21-.17.27-.29-.17.36-5.85-.18-6.51-.2-1.49,0-4.62-.73-6,0a1.14,1.14,0,0,0-.35.38,38.62,38.62,0,0,1,1.26-6.92c.83-1.81,2.42-3.59,6.49-5.11a3.59,3.59,0,0,0,.88-6.56c-1.88-.94-.25,1,0,1.5.64,1.17-2.27,2.86-2.22-1.14s8.09-8.1,10.67-9.83,5.67-3.72,7.25-8.9c0,0-.21,0-.77.53A7.87,7.87,0,0,1,180.5,17s7-10.63-1.19-15.82c-3.36-2.12-6-1-7.52.86,3,.06,5.93,2.55,7,6.22s0,7.25-2.44,9v0s0,0,0,0a5.51,5.51,0,0,1-4,.9c-.81,1.72-2,4-2.89,4.77-1.49,1.24-3.79,2-4.71,3.22s-.22-1.89.69-3.27c.33-.49.77-1.07,1.2-1.6a6.6,6.6,0,0,0,.83-.84,6,6,0,0,0,.63-.89h0a3.33,3.33,0,0,0,.28-2.77,4.26,4.26,0,0,0-.62-1.51s0,0,0,0a4.21,4.21,0,0,1-2.65,2.61,3.48,3.48,0,0,1-1,.15,4,4,0,0,1-2.87-.9,9.56,9.56,0,0,1-2.47-3.67c-.09-.24-.17-.48-.25-.72a8.29,8.29,0,0,1-.15-4.23c0-.12.06-.24.1-.36a5.84,5.84,0,0,1,.2-.59,5,5,0,0,1,.29-.62l.17-.28a6.79,6.79,0,0,1,5.82-3.13,21.46,21.46,0,0,1,2.6.4,6.49,6.49,0,0,0-9.78-1.26l-.19.19h0c-.16.16-9.36,8.57.7,20.92.62.95.37,2.06-.39,1.79s-2.88-3.55-4.21-4c-.89-.31.26,3.51,1.75,7.11a37.44,37.44,0,0,1,1.88,9.65,29,29,0,0,1-.61,9.7c-2.28-4.54-6.26-10.92-8.76-13.57-4.15-4.41-3.09,0-3.09,0S146,44.48,146.2,49L137,34.31s-1.24-1.55-1.1,1.26c.07,1.32.28,5.14.48,8.85A40.09,40.09,0,0,1,134,38.07a37.77,37.77,0,0,1-1.43-9.73c.21-3.89,0-7.88-.71-7.29-1.1.89-2,4.68-2.63,5.19s-1.24-.46-1-1.56c4.55-14.51-5.39-19.46-5.39-19.46h0c-.38-.24-.68-.4-.87-.5l-.06,0,0,0h0l0,0-.1,0a6.43,6.43,0,0,0-8.14,2.75A6.74,6.74,0,0,0,112.9,9h0a7.31,7.31,0,0,0,1.48,6.7c0-.11,0-.22,0-.33a4,4,0,0,1,0-.41h0c0-.17,0-.33,0-.51a7.33,7.33,0,0,1,2.4-5.61,4,4,0,0,1,.85-.58l0,0a3.42,3.42,0,0,1,.75-.29,3.26,3.26,0,0,1,.6-.14,1,1,0,0,1,.17,0h.09c.15,0,.3-.05.46-.05,3,0,5.35,3,5.35,6.73a8,8,0,0,1-.81,3.55c0,.12-.12.22-.18.34a5.11,5.11,0,0,1-4.36,2.85,4.66,4.66,0,0,1-3.22-1.39h0V20a3.09,3.09,0,0,1,.08.61c0,1.89-1.66,3.47-3.9,4l-.12,0a6.74,6.74,0,0,1-1.36.15H111l-.28,0a7.18,7.18,0,0,1-1-.15c-.24,0-.45,0-.72-.09-2.84-.81-5.07-3.87-5.27-7.64s1.74-7.14,4.54-8.2c-2.06-1.27-4.91-1.43-7.37,1.69C94.81,18,105,25.66,105,25.66a7.79,7.79,0,0,1-4.72-.84c-.71-.33-.91-.24-.91-.24,3.21,4.36,6.79,5.21,9.8,6s12,2,13.34,5.72-1.49,2.28-1.73,1.82,1.08-2.81-.5-1.42-1.33,5.82,3,5.9,6.44,1.23,7.83,2.66c1.2,1.24,4.41,8,5.28,9.8a35.24,35.24,0,0,0-9.56,7.55l-10.68,9.55s.37,3.37,5.62,2.25,12.75-3.94,14.15-2.35l.06.08h0c1,1.74-9.54,8.44-9.54,8.44s.67,3.56,9.93,0c4.55-1.75,8.07-2.9,10.46-3.62s3.67-1,3.74-1h0a13.09,13.09,0,0,1,1.61,1c0,2.31.25,8,.25,8a8.1,8.1,0,0,0,3.38-4.74,2.26,2.26,0,0,0,.11.22,13.84,13.84,0,0,0,1.18,9,11.3,11.3,0,0,1-1,2.13,12.17,12.17,0,0,1-3.1,3.31c9.41,7.5,14.32,15.61,15.44,25.48a45.16,45.16,0,0,1,.08,8.63c-.16,2.1-.44,4.24-.79,6.4A28.28,28.28,0,0,0,176,125.09l.15-.35a54.88,54.88,0,0,1-.15,6,40.76,40.76,0,0,0,3.1-10.31A49.77,49.77,0,0,0,184.29,110a13.77,13.77,0,0,1,1.8,7.3,138.85,138.85,0,0,0,2.63-21c.2-3.64.2-7.5-1.65-10.63,2.23.5,4,2.14,5.84,3.45s4.28,2.35,6.37,1.45C195.74,89.9,193.25,86.66,191.82,83.34ZM140.21,60.85c-1.86.76-3.59.84-3.87.17s1-1.83,2.88-2.6,3.6-.84,3.87-.17S142.08,60.08,140.21,60.85Z"/><path class="cls-1" d="M171.11,154.43c-1.51,22.83-1.71,29-1.73,30.54a9,9,0,0,0,1.36,1.46c-2.06-.16-4.54-.36-5.62-.51-.73-.1-2.05-1.62-2.9-3l.53-26.12c.26-.76,1.13-3.39,2.07-7.44l.08-.35c.91-3.9,1.8-7.71,2.49-11.43l1.29-1a32,32,0,0,0,6.56-7.11C173.93,136.78,171.39,151.39,171.11,154.43ZM83,132.33l-.33-.13-.4-.16c-.9-.32-1.71-.58-2.45-.78l-.21,0L78.6,131a17.74,17.74,0,0,0-2.44-.17,16.45,16.45,0,0,0-4.52.63c-.19.07-.4.12-.58.19-.37.12-.72.27-1.07.41a15.24,15.24,0,0,0-4.08,2.77c-3.32,3.13-4.94,7.16-7.52,9.65-5.32,5.13-9.66,6-9.66,6l9.06,24.64L64.11,193h22.1c-.77-2.62-3.7-5.05-3.7-5.05s-9-.5-11-.74c-1.78-.21-2.28-2.94-2.28-2.94-6.28-27.45-6.42-28-6.24-30.64.22-3.4,3.47-5.6,5.85-6.92l.44-.24a124.93,124.93,0,0,0,18.24-10.16c1.17-.8,1.78-1.27,1.57-1.2A56.34,56.34,0,0,0,83,132.33Z"/><path class="cls-1" d="M171.11,154.43c-1.51,22.83-1.71,29-1.73,30.54a9,9,0,0,0,1.36,1.46c-2.06-.16-4.54-.36-5.62-.51-.73-.1-2.05-1.62-2.9-3l.53-26.12c.26-.76,1.13-3.39,2.07-7.44l.08-.35c.91-3.9,1.8-7.71,2.49-11.43l1.29-1a32,32,0,0,0,6.56-7.11C173.93,136.78,171.39,151.39,171.11,154.43ZM83,132.33l-.33-.13-.4-.16c-.9-.32-1.71-.58-2.45-.78l-.21,0L78.6,131a17.74,17.74,0,0,0-2.44-.17,16.45,16.45,0,0,0-4.52.63c-.19.07-.4.12-.58.19-.37.12-.72.27-1.07.41a15.24,15.24,0,0,0-4.08,2.77c-3.32,3.13-4.94,7.16-7.52,9.65-5.32,5.13-9.66,6-9.66,6l9.06,24.64L64.11,193h22.1c-.77-2.62-3.7-5.05-3.7-5.05s-9-.5-11-.74c-1.78-.21-2.28-2.94-2.28-2.94-6.28-27.45-6.42-28-6.24-30.64.22-3.4,3.47-5.6,5.85-6.92l.44-.24a124.93,124.93,0,0,0,18.24-10.16c1.17-.8,1.78-1.27,1.57-1.2A56.34,56.34,0,0,0,83,132.33Z"/></g></svg>