<svg xmlns="http://www.w3.org/2000/svg" xmlns:xlink="http://www.w3.org/1999/xlink" viewBox="0 0 1186.42 162.86"><defs><style>.cls-1{fill:url(#linear-gradient);}.cls-2{fill:url(#linear-gradient-2);}.cls-3{fill:url(#linear-gradient-3);}.cls-4{fill:url(#linear-gradient-4);}.cls-5{fill:url(#linear-gradient-5);}.cls-6{fill:url(#linear-gradient-6);}.cls-7{fill:url(#linear-gradient-7);}.cls-8{fill:url(#linear-gradient-8);}.cls-9{fill:url(#linear-gradient-9);}.cls-10{fill:url(#linear-gradient-10);}</style><linearGradient id="linear-gradient" x1="-6.06" y1="82.73" x2="1193.88" y2="68.07" gradientUnits="userSpaceOnUse"><stop offset="0" stop-color="#c69b95"/><stop offset="1" stop-color="#f5deca"/></linearGradient><linearGradient id="linear-gradient-2" x1="-5.76" y1="107.66" x2="1194.18" y2="93.01" xlink:href="#linear-gradient"/><linearGradient id="linear-gradient-3" x1="-5.74" y1="109.22" x2="1194.2" y2="94.56" xlink:href="#linear-gradient"/><linearGradient id="linear-gradient-4" x1="-6" y1="87.63" x2="1193.94" y2="72.98" xlink:href="#linear-gradient"/><linearGradient id="linear-gradient-5" x1="-5.7" y1="112.05" x2="1194.24" y2="97.4" xlink:href="#linear-gradient"/><linearGradient id="linear-gradient-6" x1="-5.97" y1="89.71" x2="1193.96" y2="75.06" xlink:href="#linear-gradient"/><linearGradient id="linear-gradient-7" x1="-5.79" y1="104.82" x2="1194.15" y2="90.16" xlink:href="#linear-gradient"/><linearGradient id="linear-gradient-8" x1="-5.66" y1="115.11" x2="1194.27" y2="100.46" xlink:href="#linear-gradient"/><linearGradient id="linear-gradient-9" x1="-5.65" y1="116.41" x2="1194.29" y2="101.75" xlink:href="#linear-gradient"/><linearGradient id="linear-gradient-10" x1="-5.93" y1="93.61" x2="1194.01" y2="78.96" xlink:href="#linear-gradient"/></defs><g id="Layer_2" data-name="Layer 2"><g id="Layer_1-2" data-name="Layer 1"><path class="cls-1" d="M147.61,138.6v2.08L0,80.85,147.61,21V23.1L4.85,80.85Z"/><path class="cls-2" d="M318.78,73.92c0,47.13-29.8,88.94-60.29,88.94-8.78,0-16.4-3.47-21-10.63a68.31,68.31,0,0,1-35.34,10.63c-16.4,0-31.19-7.86-31.19-31.65V66.76a11.44,11.44,0,0,0-9.47-11.32V54.05L201,48.28h.7a3.76,3.76,0,0,1,3.92,3.93V128c0,11.78-12,14.78-12,23.33,0,4.85,6.7,8.08,15.71,8.08,13.4,0,24.25-6.23,27.49-8.08-3.24-5.32-5.08-12.25-5.08-21V66.76a11.44,11.44,0,0,0-9.48-11.32V54.05l39.51-5.77h.69a3.76,3.76,0,0,1,3.93,3.93v75.3c0,11.78-12,14.79-12,23.34,0,5.08,5.09,8.77,13.4,8.31,4.62-.46,10.17-3,13.86-5.77,6.24-4.39,12-10.63,17.33-18,8.54-12.25,14.32-27.26,16.86-42.74,1.39-7.62.69-12.93-5.54-12.93-3.93,0-6.24,1.61-10.4,1.61a17.9,17.9,0,1,1,0-35.8,17.69,17.69,0,0,1,15.94,10.16C318.55,61.22,318.78,68.38,318.78,73.92Z"/><path class="cls-3" d="M431.05,134.67l1.16.7C423,152,406.33,162.86,387.62,162.86c-29.1,0-52.67-26.11-52.67-58.45S358.52,46,387.62,46c25.18,0,43.89,19.63,49,45.74h-67c0,30.49,16.87,55.21,37.66,55.21C416.27,146.92,424.58,142.3,431.05,134.67ZM369.6,90.32h35.58c-1.39-28.64-7.39-43-17.56-43C371.68,47.36,369.83,82.47,369.6,90.32Z"/><path class="cls-4" d="M521.83,162.63c-10.62,1.15-20.79-2.55-29.56-9.47v3.69a4.74,4.74,0,0,1-4.85,4.85H448.14v-1.38A11.64,11.64,0,0,0,457.62,149V18.48a11.64,11.64,0,0,0-9.48-11.32V5.78L487.65,0h.69a4,4,0,0,1,3.93,4.16V50.82A46.55,46.55,0,0,1,508.9,46c25.41-2.54,49.66,21.48,52.9,53.82C565,131.9,547.25,160.08,521.83,162.63Zm5.78-60.76c0-28.41-12.47-51.28-27.49-51.28a18.57,18.57,0,0,0-7.85,1.85v98.87a18.72,18.72,0,0,0,7.85,1.85C515.14,153.16,527.61,130.29,527.61,101.87Z"/><path class="cls-5" d="M621.86,162.86c-23.57,0-43.43-12.94-43.43-30a17.9,17.9,0,0,1,35.8,0c0,12.47-10.85,14.32-10.85,20.33,0,3.46,3.92,6.92,8.54,7.62a57.31,57.31,0,0,0,9.94.69,15,15,0,0,0,15-15c0-23.1-58.44-41.12-58.44-73.46,0-18.48,21.94-27,39-27C634.1,46,641,52.44,651,51.74a9.61,9.61,0,0,0,5.78-2.54h1.15V86.63h-1.15c-2.78-13.86-9.47-35.81-31.88-38.81-8.09-1.16-14.55,3.23-15.25,12.93-1.85,24.49,53.13,38.12,55.91,69.77C666.9,148.77,645.88,162.86,621.86,162.86Z"/><path class="cls-6" d="M689.08,66.76a11.44,11.44,0,0,0-9.47-11.32V54.05l39.5-5.77h.69a3.76,3.76,0,0,1,3.93,3.93V149a11.65,11.65,0,0,0,9.47,11.32v1.38H679.61v-1.38A11.65,11.65,0,0,0,689.08,149ZM706.4,35.81A17.91,17.91,0,0,1,706.4,0a18,18,0,0,1,18,18A18,18,0,0,1,706.4,35.81Z"/><path class="cls-7" d="M808.27,151.31v1.61c-5.54,4.16-15.24,9.94-28.18,9.94A25.83,25.83,0,0,1,754.22,137V49.67h-9.47V48.28a54.1,54.1,0,0,0,42.73-20.79h1.39V48.28h15v1.39h-15v91.24a12.42,12.42,0,0,0,12.47,12.48A12.27,12.27,0,0,0,808.27,151.31Z"/><path class="cls-8" d="M913.61,134.67l1.15.7c-9.24,16.63-25.87,27.49-44.58,27.49-29.11,0-52.67-26.11-52.67-58.45S841.07,46,870.18,46c25.18,0,43.89,19.63,49,45.74h-67c0,30.49,16.87,55.21,37.66,55.21C898.82,146.92,907.14,142.3,913.61,134.67ZM852.16,90.32h35.58c-1.39-28.64-7.4-43-17.56-43C854.24,47.36,852.39,82.47,852.16,90.32Z"/><path class="cls-9" d="M978.75,162.86c-23.56,0-43.43-12.94-43.43-30a17.91,17.91,0,0,1,35.81,0c0,12.47-10.86,14.32-10.86,20.33,0,3.46,3.93,6.92,8.55,7.62a57.11,57.11,0,0,0,9.93.69,15,15,0,0,0,15-15c0-23.1-58.45-41.12-58.45-73.46,0-18.48,21.95-27,39-27,16.63,0,23.56,6.47,33.5,5.77a9.55,9.55,0,0,0,5.77-2.54h1.16V86.63h-1.16c-2.77-13.86-9.47-35.81-31.88-38.81-8.08-1.16-14.55,3.23-15.24,12.93-1.85,24.49,53.13,38.12,55.9,69.77C1023.8,148.77,1002.77,162.86,978.75,162.86Z"/><path class="cls-10" d="M1181.57,80.85,1038.81,23.1V21l147.61,59.83-147.61,59.83V138.6Z"/></g></g></svg>