<svg xmlns="http://www.w3.org/2000/svg" xmlns:xlink="http://www.w3.org/1999/xlink" viewBox="0 0 1173.39 150.11"><defs><style>.cls-1{fill:url(#linear-gradient);}.cls-2{fill:url(#linear-gradient-3);}.cls-3{fill:url(#linear-gradient-4);}.cls-4{fill:url(#linear-gradient-5);}.cls-5{fill:url(#linear-gradient-8);}</style><linearGradient id="linear-gradient" x1="1169.76" y1="74.52" x2="18.66" y2="74.52" gradientUnits="userSpaceOnUse"><stop offset="0" stop-color="#c69b95"/><stop offset="1" stop-color="#f5deca"/></linearGradient><linearGradient id="linear-gradient-3" x1="1169.76" y1="96.03" x2="18.66" y2="96.03" xlink:href="#linear-gradient"/><linearGradient id="linear-gradient-4" x1="1169.76" y1="96.24" x2="18.66" y2="96.24" xlink:href="#linear-gradient"/><linearGradient id="linear-gradient-5" x1="1169.76" y1="75.04" x2="18.66" y2="75.04" xlink:href="#linear-gradient"/><linearGradient id="linear-gradient-8" x1="1169.76" y1="87.72" x2="18.66" y2="87.72" xlink:href="#linear-gradient"/></defs><g id="Layer_2" data-name="Layer 2"><g id="Layer_1-2" data-name="Layer 1"><path class="cls-1" d="M136.06,127.75v1.92L0,74.52,136.06,19.38v1.91L4.47,74.52Z"/><path class="cls-1" d="M215.9,0l-63,149H151L214.2,0Z"/><path class="cls-2" d="M373.67,68.13c0,43.44-27.46,82-55.57,82-8.09,0-15.12-3.19-19.38-9.8a62.85,62.85,0,0,1-32.57,9.8c-15.12,0-28.75-7.24-28.75-29.17V61.53a10.55,10.55,0,0,0-8.73-10.43V49.82l36.41-5.32h.64a3.47,3.47,0,0,1,3.62,3.62V118c0,10.86-11.07,13.63-11.07,21.5,0,4.47,6.17,7.46,14.48,7.46,12.35,0,22.35-5.75,25.34-7.46-3-4.89-4.69-11.28-4.69-19.37V61.53a10.55,10.55,0,0,0-8.73-10.43V49.82l36.41-5.32h.64a3.47,3.47,0,0,1,3.62,3.62v69.41c0,10.86-11.07,13.63-11.07,21.51,0,4.68,4.68,8.09,12.35,7.66a28.2,28.2,0,0,0,12.77-5.32c5.75-4,11.07-9.79,16-16.61A96.77,96.77,0,0,0,370.9,85.38c1.28-7,.64-11.92-5.11-11.92-3.61,0-5.74,1.49-9.58,1.49a16.5,16.5,0,1,1,0-33,16.29,16.29,0,0,1,14.69,9.36C373.46,56.42,373.67,63,373.67,68.13Z"/><path class="cls-3" d="M477.15,124.13l1.06.64c-8.51,15.33-23.84,25.34-41.09,25.34-26.83,0-48.55-24.06-48.55-53.87s21.72-53.87,48.55-53.87c23.21,0,40.46,18.1,45.14,42.16H420.51c0,28.11,15.55,50.89,34.71,50.89C463.52,135.42,471.19,131.16,477.15,124.13ZM420.51,83.25H453.3c-1.27-26.4-6.81-39.6-16.18-39.6C422.43,43.65,420.73,76,420.51,83.25Z"/><path class="cls-4" d="M560.83,149.9c-9.8,1.06-19.17-2.35-27.26-8.73v3.4A4.36,4.36,0,0,1,529.1,149H492.9v-1.27a10.73,10.73,0,0,0,8.73-10.44V17A10.72,10.72,0,0,0,492.9,6.6V5.32L529.31,0H530a3.64,3.64,0,0,1,3.62,3.83v43a43,43,0,0,1,15.33-4.47C572.32,40,594.68,62.17,597.66,92,600.64,121.58,584.25,147.55,560.83,149.9Zm5.32-56c0-26.19-11.5-47.27-25.34-47.27a17.27,17.27,0,0,0-7.24,1.7v91.13a17.13,17.13,0,0,0,7.24,1.71C554.65,141.17,566.15,120.09,566.15,93.9Z"/><path class="cls-3" d="M653,150.11c-21.72,0-40-11.92-40-27.68a16.5,16.5,0,0,1,33,0c0,11.5-10,13.2-10,18.74,0,3.19,3.62,6.38,7.88,7a52.11,52.11,0,0,0,9.16.64A13.81,13.81,0,0,0,666.86,135c0-21.29-53.87-37.9-53.87-67.71,0-17,20.22-24.91,36-24.91,15.33,0,21.72,6,30.87,5.32a8.83,8.83,0,0,0,5.33-2.34h1.06v34.5h-1.06c-2.56-12.78-8.73-33-29.39-35.78-7.45-1.06-13.41,3-14,11.93-1.7,22.57,49,35.13,51.53,64.3C694.54,137.12,675.16,150.11,653,150.11Z"/><path class="cls-1" d="M715,61.53a10.55,10.55,0,0,0-8.72-10.43V49.82l36.4-5.32h.64a3.47,3.47,0,0,1,3.62,3.62v89.21a10.74,10.74,0,0,0,8.73,10.44V149H706.25v-1.27A10.73,10.73,0,0,0,715,137.33Zm16-28.53a16.5,16.5,0,0,1,0-33,16.63,16.63,0,0,1,16.61,16.61A16.58,16.58,0,0,1,730.94,33Z"/><path class="cls-5" d="M824.84,139.46V141c-5.11,3.84-14.05,9.16-26,9.16A23.81,23.81,0,0,1,775,126.26V45.78h-8.73V44.5a49.86,49.86,0,0,0,39.39-19.16H807V44.5h13.83v1.28H807v84.1a11.44,11.44,0,0,0,11.49,11.5A11.27,11.27,0,0,0,824.84,139.46Z"/><path class="cls-3" d="M921.93,124.13l1.06.64c-8.51,15.33-23.84,25.34-41.09,25.34-26.83,0-48.55-24.06-48.55-53.87s21.72-53.87,48.55-53.87c23.21,0,40.46,18.1,45.14,42.16H865.29c0,28.11,15.55,50.89,34.71,50.89C908.3,135.42,916,131.16,921.93,124.13ZM865.29,83.25h32.79c-1.27-26.4-6.81-39.6-16.18-39.6C867.21,43.65,865.51,76,865.29,83.25Z"/><path class="cls-3" d="M982,150.11c-21.72,0-40-11.92-40-27.68a16.5,16.5,0,0,1,33,0c0,11.5-10,13.2-10,18.74,0,3.19,3.62,6.38,7.87,7a52.11,52.11,0,0,0,9.16.64A13.81,13.81,0,0,0,995.81,135c0-21.29-53.87-37.9-53.87-67.71,0-17,20.23-24.91,36-24.91,15.33,0,21.71,6,30.87,5.32a8.8,8.8,0,0,0,5.32-2.34h1.07v34.5h-1.07c-2.55-12.78-8.73-33-29.38-35.78-7.45-1.06-13.42,3-14,11.93-1.71,22.57,49,35.13,51.52,64.3C1023.49,137.12,1004.11,150.11,982,150.11Z"/><path class="cls-1" d="M1168.91,74.52,1037.33,21.29V19.38l136.06,55.14-136.06,55.15v-1.92Z"/></g></g></svg>